<svg width="337" height="78" viewBox="0 0 337 78" fill="none" xmlns="http://www.w3.org/2000/svg">
<path d="M6.09657 72.8118H5V71.9345H6.09657V67.7676H8.50903C9.82491 67.7676 10.7021 67.7676 11.3601 67.9869C12.018 68.2062 12.4567 68.4255 12.8953 68.8641C13.3339 69.3028 13.7726 69.7414 13.9919 70.3994C14.2112 71.0573 14.4305 71.7152 14.4305 72.5925C14.4305 73.4698 14.2112 74.1277 13.7725 74.7856C13.3339 75.4436 12.8953 76.1015 12.2373 76.3208C11.5794 76.7594 10.7022 76.7594 9.38627 76.7594H6.09657V72.8118ZM6.97381 72.8118V76.1015H8.50903C9.82491 76.1015 10.9215 76.1015 11.3601 75.8822C11.7987 75.6629 12.2373 75.4435 12.4566 75.0049C12.676 74.5663 13.1146 74.347 13.1146 73.9083C13.3339 73.4697 13.3339 73.0311 13.3339 72.3732C13.3339 71.7152 13.1146 71.2766 12.8953 70.6186C12.676 70.18 12.2374 69.7414 12.0181 69.3028C11.5794 68.8642 11.1408 68.6448 10.4828 68.6448C9.8249 68.4255 8.94762 68.4255 7.85105 68.4255H6.75448V71.7152H9.16694V72.5925H6.97381V72.8118Z" fill="white"/>
<path d="M15.7461 73.6891C15.7461 72.5926 16.1847 71.7153 16.8427 71.0573C17.5006 70.3994 18.3779 69.9608 19.4745 69.9608C20.571 69.9608 21.2289 70.3994 22.1062 71.0573C22.7641 71.7153 23.2027 72.5926 23.2027 73.6891C23.2027 74.7857 22.7641 75.6629 22.1062 76.3209C21.4482 76.9788 20.571 77.4174 19.4745 77.4174C18.3779 77.4174 17.5006 76.9788 16.8427 76.3209C15.9654 75.4436 15.7461 74.5664 15.7461 73.6891ZM21.8869 73.6891C21.8869 73.0312 21.6675 72.1539 21.0096 71.7153C20.571 71.0573 19.9131 70.838 19.0358 70.838C18.3779 70.838 17.7199 71.0573 17.062 71.7153C16.6234 72.3732 16.1847 73.0312 16.1847 73.6891C16.1847 74.5664 16.404 75.2243 17.062 75.6629C17.5006 76.1016 18.1585 76.5402 19.0358 76.5402C19.9131 76.5402 20.3517 76.3209 21.0096 75.6629C21.6675 75.005 21.8869 74.3471 21.8869 73.6891ZM21.6676 69.3029H20.571L19.4745 68.4256L18.3779 69.3029H17.2813L19.0358 67.7676H19.913L21.6676 69.3029ZM22.5448 66.2324H23.8607L21.6676 67.987H20.7903L22.5448 66.2324Z" fill="white"/>
<path d="M24.082 68.2068C24.082 67.9875 24.082 67.7682 24.3013 67.7682C24.5206 67.5488 24.5206 67.5488 24.7399 67.5488C24.9593 67.5488 25.1786 67.5488 25.1786 67.7682C25.3979 67.9875 25.3979 67.9875 25.3979 68.2068C25.3979 68.4261 25.3979 68.6454 25.1786 68.6454C24.9593 68.8647 24.9593 68.8647 24.7399 68.8647C24.5206 68.8647 24.3013 68.8647 24.3013 68.6454C24.082 68.4261 24.082 68.4261 24.082 68.2068ZM24.3013 70.1806H25.1786V77.1986H24.3013V70.1806Z" fill="white"/>
<path d="M31.9768 75.8824C31.9768 76.1017 31.9768 76.321 31.9768 76.321C31.9768 76.321 32.1962 76.321 32.4155 76.321H32.8542V76.9789C32.4155 76.9789 32.1962 76.9789 31.9768 76.9789C31.5382 76.9789 31.319 76.9789 31.0997 76.7596C30.8804 76.5403 30.8803 76.321 30.8803 75.8824V70.6188H29.5645V69.9609H30.8803V67.3291H31.7576V69.9609H33.0734V70.6188H31.7576V75.8824H31.9768Z" fill="white"/>
<path d="M41.626 70.1802V77.1982H40.7487V76.1016C39.8714 76.9789 38.9941 77.4175 38.1169 77.4175C37.0203 77.4175 36.1432 76.9789 35.4852 76.321C34.8273 75.663 34.3887 74.7858 34.3887 73.6892C34.3887 72.5927 34.8273 71.9347 35.4852 71.0575C36.1432 70.3995 37.0203 69.9609 38.1169 69.9609C39.2135 69.9609 40.0908 70.3995 40.9681 71.4961V70.1802H41.626ZM40.9681 73.6892C40.9681 72.812 40.7487 72.154 40.0908 71.7154C39.6521 71.2767 38.9941 70.8381 38.1169 70.8381C37.2396 70.8381 36.8011 71.0574 36.1432 71.7154C35.7045 72.3733 35.2658 73.0313 35.2658 73.6892C35.2658 74.3472 35.4852 75.2244 36.1432 75.6631C36.5818 76.321 37.2396 76.5403 38.1169 76.5403C38.7748 76.5403 39.4328 76.321 40.0908 75.6631C40.5294 75.0051 40.9681 74.3472 40.9681 73.6892ZM38.7749 67.3291H40.0908L37.8976 69.0836H37.0203L38.7749 67.3291Z" fill="white"/>
<path d="M50.3989 71.4958L49.741 71.9344C49.0831 71.0572 48.2057 70.6185 47.3285 70.6185C46.4512 70.6185 45.7933 70.8379 45.1353 71.4958C44.4774 71.9345 44.2582 72.5924 44.2582 73.4697C44.2582 74.3469 44.4774 75.0048 45.1353 75.4435C45.7933 76.1014 46.4512 76.3207 47.3285 76.3207C48.425 76.3207 49.0831 75.8821 49.741 75.0048L50.3989 75.4435C49.9603 75.8821 49.5216 76.3207 49.083 76.54C48.425 76.7593 47.7672 76.9787 47.1092 76.9787C46.0126 76.9787 45.1354 76.5401 44.4774 75.8821C43.8195 75.2242 43.3809 74.3469 43.3809 73.2503C43.3809 72.1538 43.8195 71.2765 44.4774 70.6185C45.1354 69.9606 46.2319 69.522 47.3285 69.522C47.9864 69.522 48.6443 69.7413 49.083 69.9606C49.7409 70.6186 50.1796 71.0572 50.3989 71.4958Z" fill="white"/>
<path d="M56.9809 75.8824C56.9809 76.1017 56.9809 76.321 56.9809 76.321C56.9809 76.321 57.2002 76.321 57.4195 76.321H57.8581V76.9789C57.4194 76.9789 57.2002 76.9789 56.9809 76.9789C56.5423 76.9789 56.3229 76.9789 56.1036 76.7596C55.8843 76.5403 55.8843 76.321 55.8843 75.8824V70.6188H54.5684V69.9609H55.8843V67.3291H56.7615V69.9609H58.0775V70.6188H56.7615V75.8824H56.9809Z" fill="white"/>
<path d="M59.8296 67.3291H60.7069V71.2768C61.3649 70.3995 62.242 69.9609 63.3386 69.9609C63.7772 69.9609 64.4352 70.1802 64.6545 70.3995C65.0932 70.6189 65.3124 71.0575 65.5317 71.4961C65.751 71.9347 65.7511 72.5927 65.7511 73.4699V76.9789H64.8738V73.6892C64.8738 73.0313 64.8738 72.5927 64.8738 72.154C64.8738 71.9347 64.6545 71.7154 64.6545 71.2768C64.4352 71.0575 64.2159 70.8381 63.9966 70.6188C63.7773 70.3995 63.5579 70.3995 63.1193 70.3995C62.6807 70.3995 62.4614 70.3995 62.0227 70.6188C61.8034 70.8381 61.3648 71.0575 61.1454 71.2768C60.9261 71.4961 60.7069 71.9347 60.7069 72.154C60.7069 72.3733 60.4875 73.0313 60.4875 74.1278V76.7596H59.6104V67.3291H59.8296Z" fill="white"/>
<path d="M67.2861 68.2068C67.2861 67.9875 67.2861 67.7682 67.5054 67.7682C67.7247 67.5488 67.7247 67.5488 67.944 67.5488C68.1634 67.5488 68.3827 67.5488 68.3827 67.7682C68.602 67.9875 68.602 67.9875 68.602 68.2068C68.602 68.4261 68.602 68.6454 68.3827 68.6454C68.1634 68.8647 68.1634 68.8647 67.944 68.8647C67.7247 68.8647 67.5054 68.8647 67.5054 68.6454C67.5054 68.4261 67.2861 68.4261 67.2861 68.2068ZM67.7247 70.1806H68.602V77.1986H67.7247V70.1806Z" fill="white"/>
<path d="M76.2801 74.7857L76.938 75.2243C76.28 76.5402 75.1835 77.4174 73.6483 77.4174C72.5517 77.4174 71.6744 76.9788 71.0165 76.3209C70.3585 75.6629 69.9199 74.7857 69.9199 73.6891C69.9199 72.5926 70.3585 71.7153 71.0165 71.0573C71.6744 70.3994 72.5517 69.9608 73.6483 69.9608C74.7448 69.9608 75.4028 70.3994 76.2801 71.0573C76.938 71.7153 77.3766 72.5926 77.3766 73.6891H71.2359C71.2359 74.5664 71.4551 75.2243 72.1131 75.6629C72.5517 76.1016 73.2097 76.3209 73.8677 76.3209C74.7449 76.3209 75.6221 75.8823 76.2801 74.7857ZM76.2801 72.8118C76.0608 72.1539 75.8414 71.7153 75.4028 71.2767C74.9641 70.838 74.3062 70.6187 73.6483 70.6187C72.3324 70.6187 71.4551 71.2766 71.0165 72.8118H76.2801ZM75.8414 69.3029H74.7448L73.6483 68.4256L72.5517 69.3029H71.4551L73.2096 67.7676H74.0869L75.8414 69.3029ZM76.938 66.2324H78.2539L76.0608 67.987H75.1835L76.938 66.2324Z" fill="white"/>
<path d="M80.4436 75.8824C80.4436 76.1017 80.4436 76.321 80.4436 76.321C80.4436 76.321 80.6628 76.321 80.8821 76.321H81.3208V76.9789C80.8821 76.9789 80.6629 76.9789 80.4436 76.9789C80.005 76.9789 79.7856 76.9789 79.5663 76.7596C79.347 76.5403 79.347 76.321 79.347 75.8824V70.6188H78.4697V69.9609H79.7856V67.3291H80.6629V69.9609H81.9787V70.6188H80.6629V75.8824H80.4436Z" fill="white"/>
<path d="M86.3682 67.3291H87.2455V72.8119L90.5352 70.1802H91.851L87.9034 73.4699L92.0704 76.9789H90.7544L87.2455 73.9085V76.9789H86.3682V67.3291Z" fill="white"/>
<path d="M98.8678 74.7857L99.5257 75.2243C98.8678 76.5402 97.7712 77.4174 96.236 77.4174C95.1395 77.4174 94.2623 76.9788 93.6044 76.3209C92.9464 75.6629 92.5078 74.7857 92.5078 73.6891C92.5078 72.5926 92.9464 71.7153 93.6044 71.0573C94.2623 70.3994 95.1395 69.9608 96.236 69.9608C97.3326 69.9608 97.9906 70.3994 98.8678 71.0573C99.5258 71.7153 99.9644 72.5926 99.9644 73.6891H93.8236C93.8236 74.5664 94.043 75.2243 94.7009 75.6629C95.1396 76.1016 95.7975 76.3209 96.4554 76.3209C97.3327 76.3209 98.2099 75.8823 98.8678 74.7857ZM98.8678 72.8118C98.6485 72.1539 98.4293 71.7153 97.9907 71.2767C97.552 70.838 96.894 70.6187 96.236 70.6187C94.9202 70.6187 94.043 71.2766 93.6044 72.8118H98.8678ZM98.6486 69.3029H97.552L96.4554 68.4256L95.3589 69.3029H94.2623L96.0168 67.7676H96.8941L98.6486 69.3029ZM99.5257 66.2324H100.842L98.6486 67.987H97.7713L99.5257 66.2324Z" fill="white"/>
<path d="M104.569 67.3291H105.666V72.8119L108.736 70.1802H110.052L106.324 73.4699L110.271 76.9789H108.956L105.666 73.9085V76.9789H104.569V67.3291Z" fill="white"/>
<path d="M110.931 68.2068C110.931 67.9875 110.931 67.7682 111.15 67.7682C111.369 67.5488 111.369 67.5488 111.589 67.5488C111.808 67.5488 112.027 67.5488 112.027 67.7682C112.247 67.9875 112.247 67.9875 112.247 68.2068C112.247 68.4261 112.247 68.6454 112.027 68.6454C111.808 68.8647 111.808 68.8647 111.589 68.8647C111.369 68.8647 111.15 68.8647 111.15 68.6454C110.931 68.4261 110.931 68.4261 110.931 68.2068ZM111.15 70.1806H112.027V77.1986H111.15V70.1806Z" fill="white"/>
<path d="M119.702 74.7857L120.36 75.2243C119.702 76.5402 118.605 77.4174 117.07 77.4174C115.973 77.4174 115.096 76.9788 114.438 76.3209C113.78 75.6629 113.342 74.7857 113.342 73.6891C113.342 72.5926 113.78 71.7153 114.438 71.0573C115.096 70.3994 115.973 69.9608 117.07 69.9608C118.167 69.9608 118.825 70.3994 119.702 71.0573C120.36 71.7153 120.798 72.5926 120.798 73.6891H114.658C114.658 74.5664 114.877 75.2243 115.535 75.6629C115.974 76.1016 116.631 76.3209 117.289 76.3209C118.386 76.3209 119.263 75.8823 119.702 74.7857ZM119.702 72.8118C119.482 72.1539 119.263 71.7153 118.825 71.2767C118.386 70.838 117.728 70.6187 117.07 70.6187C115.754 70.6187 114.877 71.2766 114.438 72.8118H119.702ZM119.483 69.3029H118.386L117.289 68.4256L116.193 69.3029H115.096L116.851 67.7676H117.728L119.483 69.3029ZM120.36 66.2324H121.676L119.483 67.987H118.605L120.36 66.2324Z" fill="white"/>
<path d="M122.333 70.1802H123.21V71.4961C123.868 70.6188 124.745 70.1802 125.842 70.1802C126.281 70.1802 126.939 70.3994 127.158 70.6188C127.597 70.8381 127.816 71.2767 128.035 71.7153C128.254 72.154 128.254 72.812 128.254 73.6892V77.1982H127.377V73.9085C127.377 73.0312 127.377 72.5926 127.158 72.3733C127.158 72.154 126.939 71.9346 126.719 71.7153C126.5 71.496 126.281 71.2767 126.061 71.2767C125.842 71.2767 125.623 71.0574 125.184 71.0574C124.745 71.0574 124.526 71.0574 124.307 71.2767C124.088 71.4961 123.649 71.7153 123.43 71.9347C123.21 72.154 122.991 72.5926 122.991 72.8119C122.991 73.0312 122.772 73.6892 122.772 74.7858V77.4175H122.333V70.1802Z" fill="white"/>
<path d="M135.275 75.8824C135.275 76.1017 135.275 76.321 135.275 76.321C135.275 76.321 135.494 76.321 135.713 76.321H136.152V76.9789C135.713 76.9789 135.494 76.9789 135.275 76.9789C134.836 76.9789 134.617 76.9789 134.398 76.7596C134.178 76.5403 134.178 76.321 134.178 75.8824V70.6188H132.862V69.9609H134.178V67.3291H135.055V69.9609H136.371V70.6188H135.055V75.8824H135.275Z" fill="white"/>
<path d="M137.685 70.1802H138.562V71.2767C138.781 70.8381 139 70.6188 139.22 70.3995C139.439 70.1802 139.658 70.1802 140.097 70.1802C140.316 70.1802 140.755 70.1802 140.974 70.3995L140.536 71.0574C140.316 71.0574 140.316 70.8381 140.097 70.8381C139.878 70.8381 139.658 71.0574 139.439 71.2767C139.22 71.4961 139 71.9347 139 72.3733C138.781 72.8119 138.781 73.6892 138.781 74.7858V77.1982H137.685V70.1802Z" fill="white"/>
<path d="M147.993 76.9793H147.115V75.6635C146.458 76.5407 145.58 76.9793 144.484 76.9793C144.045 76.9793 143.387 76.76 143.168 76.5407C142.729 76.3214 142.51 75.8828 142.291 75.4441C142.071 75.0055 142.071 74.3476 142.071 73.4703V69.9613H142.949V73.251C142.949 74.1282 142.949 74.5669 143.168 74.7862C143.168 75.0055 143.387 75.2248 143.607 75.4441C143.826 75.6634 144.045 75.8828 144.264 75.8828C144.484 75.8828 144.703 76.102 145.142 76.102C145.58 76.102 145.8 76.1021 146.019 75.8828C146.238 75.6635 146.677 75.4441 146.896 75.2248C147.116 75.0055 147.335 74.5669 147.335 74.3476C147.335 74.1282 147.554 73.4703 147.554 72.3738V69.742H148.431V76.9793H147.993ZM145.361 67.5488H146.677L144.484 69.3034H143.607L145.361 67.5488Z" fill="white"/>
<path d="M156.546 71.4958L155.888 71.9344C155.23 71.0572 154.353 70.6185 153.476 70.6185C152.599 70.6185 151.941 70.8379 151.283 71.4958C150.625 71.9345 150.405 72.5924 150.405 73.4697C150.405 74.3469 150.625 75.0048 151.283 75.4435C151.941 76.1014 152.599 76.3207 153.476 76.3207C154.573 76.3207 155.23 75.8821 155.888 75.0048L156.546 75.4435C156.108 75.8821 155.669 76.3207 155.23 76.54C154.572 76.7593 153.914 76.9787 153.257 76.9787C152.16 76.9787 151.283 76.5401 150.625 75.8821C149.967 75.2242 149.528 74.3469 149.528 73.2503C149.528 72.1538 149.967 71.2765 150.625 70.6185C151.283 69.9606 152.379 69.522 153.476 69.522C154.134 69.522 154.792 69.7413 155.23 69.9606C155.888 70.6186 156.327 71.0572 156.546 71.4958Z" fill="white"/>
<path d="M187.469 9.21143H186.812V73.0317H187.469V9.21143Z" fill="white"/>
<path d="M89.2198 39.0381C88.7812 39.0381 88.1232 39.0381 87.6846 39.0381C85.2722 39.2574 83.5176 40.5733 82.421 42.5471C81.3245 44.7402 81.1052 46.9334 81.5439 49.3458C81.9825 51.9776 83.5177 53.7321 85.9301 54.6094C86.5881 54.8287 87.2459 55.048 87.9039 55.048H90.3164H90.5357C92.0708 54.8287 93.3867 54.1707 94.4833 53.2935C95.3605 52.6355 96.0185 51.7583 96.6764 50.6617C95.5798 50.0038 94.4833 49.5651 93.1674 48.9072C92.7288 50.0038 92.0709 50.881 90.9743 51.3197C90.5357 51.539 89.8777 51.7583 89.4391 51.7583C89.0005 51.7583 88.3425 51.7583 87.9039 51.3197C86.588 50.881 85.7108 49.1265 85.9301 47.8106H91.413H96.8958V47.5913C96.8958 46.2754 96.6765 45.1789 96.4571 44.0823C95.7992 41.6699 94.2639 40.1347 91.8515 39.2574C90.9742 39.0381 90.0971 39.0381 89.2198 39.0381ZM86.1494 45.1789C86.3687 43.4244 87.6846 42.1085 89.2198 42.1085C89.2198 42.1085 89.2198 42.1085 89.4391 42.1085C91.1936 42.1085 92.2901 43.2051 92.2901 44.9596L86.1494 45.1789Z" fill="white"/>
<path d="M116.632 39.0381C115.974 39.0381 115.536 39.0381 114.878 39.2574C112.904 39.4767 111.369 40.354 110.491 42.3278C109.614 44.3016 110.053 46.9334 112.246 48.03C113.562 48.6879 114.658 48.9072 115.974 49.1265C116.632 49.3458 117.509 49.3459 118.167 49.5652C118.825 49.7845 119.045 50.6617 118.387 51.3197C118.167 51.539 117.729 51.7583 117.509 51.7583C117.071 51.9776 116.632 51.9776 115.974 51.9776C115.316 51.9776 114.439 51.7583 113.781 51.539C112.904 51.1004 112.246 50.6617 111.369 50.0038C110.491 50.881 109.614 51.539 108.518 52.4162L108.737 52.6355C110.93 54.6094 113.123 55.4866 115.755 55.4866C117.071 55.4866 118.387 55.2673 119.703 54.8287C121.018 54.3901 121.896 53.7321 122.554 52.4162C122.773 51.9776 122.992 51.3196 123.212 50.881V49.5652C122.992 48.03 122.115 47.1527 120.799 46.4947C119.703 46.0561 118.606 45.6175 117.29 45.3982C116.413 45.1788 115.755 45.1789 114.878 44.9596C114.658 44.9596 114.439 44.7402 114.22 44.3016C114 43.863 114.22 43.4243 114.878 43.205C115.316 42.9857 115.755 42.9858 116.194 42.9858C116.413 42.9858 116.851 42.9858 117.071 42.9858C118.167 43.2051 119.045 43.6437 119.922 44.3016H120.141C120.141 44.3016 120.36 44.3016 120.36 44.0823C120.799 43.6437 121.238 43.2051 121.676 42.7664C122.115 42.3278 122.334 42.1085 122.773 41.6699V41.4505C121.238 39.696 119.045 39.0381 116.632 39.0381Z" fill="white"/>
<path d="M11.7979 34.2134C10.0434 34.2134 8.28886 34.2134 6.53436 34.2134H6.0957V54.8288H11.3592V48.0301C12.0172 48.0301 12.8944 48.0301 13.5523 48.0301C13.991 48.0301 14.4296 48.0301 14.8682 48.0301C16.1841 48.0301 17.2807 47.8108 18.5966 47.5914C21.009 47.1528 22.7635 45.6176 23.4215 43.4245C24.0794 41.67 23.8601 40.1348 23.4215 38.3803C22.7635 36.4065 21.4477 35.0906 19.4738 34.652C18.158 34.2133 17.0614 34.2134 15.7455 34.2134C14.4296 34.2134 13.1137 34.2134 11.7979 34.2134ZM12.0172 44.3017C11.7979 44.3017 11.5785 44.3017 11.3592 44.3017V38.161H11.5785C12.2365 38.161 12.8944 38.161 13.5523 38.161C14.2103 38.161 14.8682 38.161 15.5262 38.161C15.9648 38.161 16.6228 38.3803 17.0614 38.3803C18.3773 38.8189 18.8159 39.6962 18.8159 41.012C18.8159 41.4507 18.8159 41.8893 18.5966 42.3279C18.3773 43.4245 17.5 44.0825 16.4035 44.0825C15.0876 44.3018 13.991 44.0824 12.6751 44.3017C12.4558 44.3017 12.2365 44.3017 12.0172 44.3017Z" fill="white"/>
<path d="M32.6332 39.0372C31.7559 39.0372 31.098 39.0372 30.2208 39.2565C29.1242 39.4758 28.0276 39.9145 27.1503 40.7917C26.2731 41.669 26.0538 42.5462 26.0538 43.6428C26.7117 43.6428 27.589 43.6428 28.2469 43.6428C28.9048 43.6428 29.5628 43.6428 30.2208 43.6428C30.4401 43.6428 30.44 43.4235 30.44 43.4235C30.6594 42.7655 30.8787 42.3269 31.5366 42.1076C31.9752 42.1076 32.4139 41.8883 32.8526 41.8883C32.8526 41.8883 33.0719 41.8883 33.2912 41.8883C33.9492 41.8883 34.1685 42.3269 34.3878 42.7656C34.3878 43.2042 34.607 43.8621 34.607 44.3007L34.3878 44.52C33.2912 44.7393 32.1947 44.9587 31.0981 45.178C29.7822 45.3973 28.4662 45.8359 27.589 46.4938C26.4924 47.3711 25.6153 48.4677 25.6153 50.0029C25.3959 52.8539 27.3697 54.8278 30.2208 54.8278C30.4401 54.8278 30.4401 54.8278 30.6594 54.8278C32.1946 54.8278 33.7298 54.3891 35.0457 53.2926L35.4844 53.0732V54.3891H39.8706C39.8706 53.9505 39.6512 53.7312 39.6512 53.2926C39.6512 52.8539 39.6512 52.196 39.6512 51.7574C39.6512 48.687 39.6512 45.8359 39.6512 42.7656C39.6512 41.669 39.2127 40.5724 38.3354 39.9144C37.6775 39.4758 37.2389 39.0372 36.5809 38.8179C34.8264 39.2565 33.7297 39.0372 32.6332 39.0372ZM31.5366 51.9767C31.3173 51.9767 31.0981 51.9767 31.0981 51.9767C30.4401 51.7574 30.0014 51.3187 29.7821 50.8801C29.5628 50.2222 29.7822 49.7836 30.2208 49.345L30.6594 49.1256C31.9753 48.687 33.0719 48.2484 34.3878 47.8097C34.3878 48.9063 34.3877 50.2222 33.7297 51.0994C33.2911 51.3188 32.4139 51.9767 31.5366 51.9767Z" fill="white"/>
<path d="M74.5217 39.0381C74.0831 39.0381 73.6444 39.0381 73.2058 39.0381C72.1092 39.2574 71.0127 39.6961 70.1355 40.5733H69.9161V39.4767H65.3105V54.6094H69.6968V54.39C69.6968 51.3196 69.6968 48.2492 69.6968 45.3982C69.6968 44.9595 69.6968 44.5209 69.9161 44.3016C70.1354 43.205 71.0127 42.7664 71.89 42.7664C72.1093 42.7664 72.3286 42.7664 72.5479 42.7664C73.6444 42.9858 74.083 43.6437 74.3023 44.7402C74.3023 44.9596 74.3023 45.1788 74.3023 45.3982C74.3023 48.4686 74.3023 51.3196 74.3023 54.39V54.8287H78.6886V54.6094C78.6886 51.1003 78.6886 47.5914 78.6886 44.0823C78.6886 43.6437 78.6886 43.2051 78.6886 42.7664C78.4693 41.4506 77.8114 40.5733 76.7149 39.9153C76.2762 39.2574 75.399 39.0381 74.5217 39.0381Z" fill="white"/>
<path d="M59.8299 35.0903H55.2244V39.9152H53.0312V41.2311V42.547H55.2244V42.9856C55.2244 45.1788 55.2244 47.5912 55.2244 49.7843C55.2244 50.4422 55.2244 50.8809 55.2244 51.5388C55.4437 53.2934 56.5402 54.3899 58.2947 54.6092C58.7333 54.6092 59.3913 54.6092 59.8299 54.6092C60.7072 54.6092 61.3651 54.6092 62.2423 54.3899C62.4616 54.3899 62.4617 54.1706 62.4617 53.9513C62.4617 53.0741 62.4617 51.9774 62.4617 51.1002V50.8809H62.0231C61.8037 50.8809 61.3651 50.8809 61.1457 50.8809C60.9264 50.8809 60.7072 50.8809 60.7072 50.8809C60.2686 50.8809 60.0492 50.6616 59.8299 50.0036C59.8299 49.565 59.8299 49.1264 59.8299 48.9071C59.8299 46.9332 59.8299 44.7401 59.8299 42.7663V42.3277H62.681V39.4766H59.8299V35.0903Z" fill="white"/>
<path d="M50.838 39.4761C49.3028 39.6954 47.7676 40.134 46.4517 41.2306V39.6954H42.0654V55.0473H46.4517C46.4517 52.4156 46.4517 49.5645 46.4517 46.9327C46.4517 46.4941 46.4517 46.0555 46.4517 45.8362C46.4517 45.1782 46.8903 44.5202 47.5483 44.3009C47.9869 44.0816 48.2062 44.0817 48.6448 44.0817C49.3028 43.8624 49.9607 43.8623 50.838 43.643V39.4761Z" fill="white"/>
<path d="M108.078 39.2568C106.543 39.4761 105.008 39.9147 103.692 41.0113V39.4762H99.3057V54.8281H103.692V54.3895C103.692 51.7577 103.692 48.9067 103.692 46.2749C103.692 44.7397 104.131 44.0817 105.666 43.8624C106.324 43.6431 107.201 43.6431 107.859 43.4238L108.078 39.2568Z" fill="white"/>
<path d="M77.1579 8.55322C76.4999 8.55322 76.0612 8.55324 75.4033 8.77255C73.2101 9.21118 71.4556 10.3078 70.3591 12.2816C69.0432 14.694 68.8239 17.1065 69.7012 19.7382C70.3591 22.1507 71.8942 23.6858 74.3067 24.5631C74.7453 24.7824 75.4033 24.7824 75.8419 25.0017H78.2544C78.4738 25.0017 78.693 25.0017 78.9124 24.7824C81.5441 24.3438 83.2986 22.8086 84.6145 20.3961C83.5179 19.7382 82.4213 19.2996 81.3248 18.6417C80.8861 19.7382 80.2282 20.6155 79.1316 21.0541C78.693 21.2734 78.035 21.4927 77.5964 21.4927C77.1578 21.4927 76.4999 21.4927 76.0613 21.2734C74.7454 20.6154 74.0874 18.861 74.3067 17.7644H85.0531C85.0531 16.4485 84.8338 14.9133 84.3952 13.8167C83.7373 11.6236 82.4213 10.0884 80.2282 9.43046C79.1316 8.77252 78.0351 8.55322 77.1579 8.55322ZM73.8682 14.694C74.0875 12.9395 75.4033 11.6236 76.9385 11.6236H77.1579C78.6931 11.8429 79.7896 12.7202 80.0089 14.4747L73.8682 14.694Z" fill="white"/>
<path d="M21.4476 3.72803C18.8159 3.72803 16.1841 3.72803 13.5523 3.72803C11.1399 3.72803 8.94681 3.72803 6.53436 3.72803H6.0957V24.3435H11.3592V16.0096H21.2283V12.062H20.7897C19.2545 12.062 17.9387 12.062 16.4035 12.062C14.8683 12.062 13.3331 12.062 11.7979 12.062C11.3592 12.062 11.3592 11.8426 11.3592 11.6233C11.3592 10.5268 11.3592 9.64952 11.3592 8.55295V7.67571H22.1056V7.23706C22.1056 6.14049 22.1056 5.04393 22.1056 4.16668C21.8862 3.72805 21.8863 3.72803 21.4476 3.72803Z" fill="white"/>
<path d="M31.7572 8.55322C30.8799 8.55322 29.7834 8.77256 28.9062 8.99188C26.9323 9.64982 25.3971 10.9657 24.5199 12.9395C23.8619 14.2554 23.6426 15.3519 23.6426 16.8871C23.6426 17.545 23.6425 18.203 23.8618 18.861C24.3005 21.4927 25.8357 23.4666 28.4675 24.3438C29.5641 24.7824 30.8799 25.0017 31.9765 25.0017C32.6344 25.0017 33.2924 25.0017 33.9503 24.7824C36.5821 24.3438 38.5559 23.0279 39.6524 20.3961C40.3104 18.6416 40.5297 16.6678 40.0911 14.694C39.4331 12.0622 38.1173 10.0884 35.4856 9.21114C33.9504 8.77251 32.8538 8.55322 31.7572 8.55322ZM31.7572 21.2734C30.6606 21.2734 29.5641 20.8348 28.9062 19.7382C27.8096 17.9837 27.8095 16.0099 28.6868 14.0361C29.3447 12.7202 30.222 12.2816 31.7572 12.2816C31.9765 12.2816 32.1959 12.2816 32.1959 12.2816C33.7311 12.5009 34.6083 13.3781 35.0469 14.694C35.2662 15.3519 35.2662 16.2292 35.4856 16.4485C35.4856 17.7644 35.2661 18.861 34.8275 19.7382C33.9503 20.6155 32.8538 21.2734 31.7572 21.2734Z" fill="white"/>
<path d="M48.8635 8.55322C48.2055 8.55322 47.7669 8.55324 47.109 8.77255C45.3545 8.99186 44.0385 9.64982 42.942 11.185C41.4068 13.3781 42.0648 16.6678 44.9159 17.5451C46.2317 17.9837 47.3283 18.203 48.6442 18.4223C49.3022 18.4223 49.96 18.6417 50.618 18.861C51.0566 19.0803 51.0566 19.2996 51.0566 19.7382C51.0566 20.3962 50.6179 20.6155 50.1793 20.8348C49.5214 21.0541 48.8634 21.2734 48.4248 21.2734C47.3283 21.2734 46.451 20.8348 45.5738 20.3961C45.1351 19.9575 44.4772 19.7382 44.0385 19.2996C43.1613 20.1768 42.2841 21.0541 41.1875 21.9314C41.6261 22.1507 41.8455 22.5893 42.0648 22.8086C42.5034 23.2472 42.942 23.4665 43.5999 23.6858C45.1351 24.5631 46.8896 24.7824 48.4248 24.7824C48.6441 24.7824 48.8635 24.7824 49.3021 24.7824C50.618 24.7824 52.1532 24.3438 53.2497 23.6858C55.2236 22.5893 56.1008 20.8348 55.6621 18.6417C55.4428 17.3258 54.5656 16.4485 53.469 15.7905C52.3724 15.1326 51.0567 14.9133 49.7408 14.694C49.0828 14.4747 48.2056 14.4747 47.5476 14.2554C47.3283 14.2554 46.8896 14.036 46.8896 13.5974C46.6703 13.1588 47.109 12.5009 47.7669 12.2816C48.2055 12.2816 48.6441 12.0623 49.0827 12.0623C49.302 12.0623 49.5215 12.0623 49.7408 12.0623C50.8373 12.0623 51.7146 12.7202 52.5918 13.3781L52.8111 13.5974C52.8111 13.5974 53.0305 13.5975 53.0305 13.3781C53.4691 12.9395 54.1269 12.2816 54.5656 11.8429C54.7849 11.6236 55.2236 11.185 55.4429 10.9657L55.2236 10.7464C53.2498 9.43048 51.0566 8.55322 48.8635 8.55322Z" fill="white"/>
<path d="M60.0486 4.60556C59.8293 4.60556 59.6101 4.60552 59.6101 5.04414C59.6101 6.36002 59.6101 7.67595 59.6101 8.99183V9.43041H57.417V12.2815H59.6101V12.7201C59.6101 15.5712 59.6101 18.203 59.6101 21.0541C59.6101 22.5893 60.2681 23.6858 61.8033 24.1244C62.4612 24.3438 63.1191 24.3438 63.777 24.3438C63.9963 24.3438 64.2156 24.3438 64.4349 24.3438C65.3122 24.3438 65.9702 24.3438 66.8474 24.1244V20.6154C66.6281 20.6154 66.1895 20.6154 65.9701 20.6154C65.7508 20.6154 65.5315 20.6154 65.3122 20.6154C65.3122 20.6154 65.3123 20.6154 65.093 20.6154C64.2157 20.6154 63.9964 20.1768 63.9964 19.5188C63.9964 17.1064 63.9964 14.9132 63.9964 12.5008V12.0622H66.8474V9.21109H63.9964V4.38623C63.1191 4.38623 62.4612 4.38623 61.8033 4.38623C61.3646 4.60554 60.7066 4.60556 60.0486 4.60556Z" fill="white"/>
<path d="M96.4561 8.77295C94.9209 8.99226 93.3857 9.43086 92.0699 10.5274V8.99228H87.6836V24.3442H92.0699V23.9056C92.0699 21.0545 92.0699 18.4228 92.0699 15.5717C92.0699 14.4751 92.5084 13.8171 93.3857 13.5978C93.605 13.5978 94.0437 13.3785 94.263 13.3785C94.9209 13.1592 95.5789 13.1592 96.4561 12.9399V8.77295Z" fill="white"/>
<path d="M115.315 4.16699H113.342V13.1589H104.35V15.352H113.342V24.3439H115.315V15.352H115.754C118.386 15.352 120.798 15.352 123.43 15.352C123.649 15.352 123.649 15.352 123.869 15.352H124.088L124.307 15.1327C124.307 14.4747 124.307 13.8168 124.307 13.1589H115.315V4.16699Z" fill="white"/>
<path d="M276.293 61.6271L278.925 60.0919V26.5369L292.741 17.7644V51.1L298.005 47.8103V7.23732L288.355 13.3781V0L276.293 7.67597V14.036L283.092 9.64978V16.6678L276.293 21.0541V61.6271Z" fill="white"/>
<path d="M276.293 21.0541L269.275 16.6678V9.64978L276.293 14.036V7.67597L264.011 0V13.3781L254.361 7.23732V47.8103L259.625 51.1V17.7644L273.661 26.5369V60.0919L276.293 61.6271V21.0541Z" fill="white"/>
<path d="M220.588 68.4258V77.1983H222.123V73.0314L224.755 75.6632L227.167 73.0314V77.1983H228.703V68.4258L224.755 73.0314L220.588 68.4258Z" fill="white"/>
<path d="M242.739 72.1541L241.861 71.7155C241.423 71.4962 241.204 71.4962 241.204 71.2769C240.984 71.0576 240.984 71.0576 240.984 70.8382C240.984 70.6189 240.984 70.3996 241.204 70.1803C241.423 69.961 241.642 69.961 241.861 69.961C242.519 69.961 242.958 70.1803 243.397 70.8382L244.713 69.961C244.493 69.5224 244.055 69.0837 243.616 68.8644C243.177 68.6451 242.519 68.4258 241.861 68.4258C240.984 68.4258 240.326 68.6451 239.888 69.0838C239.449 69.5224 239.01 70.1803 239.01 70.8382C239.01 71.4962 239.23 71.9348 239.449 72.1541C239.888 72.5928 240.326 72.8121 240.984 73.2507L241.861 73.6894C242.081 73.9087 242.3 73.9086 242.519 73.9086C242.739 73.9086 242.739 74.1279 242.958 74.1279C242.958 74.3473 243.177 74.3473 243.177 74.5666C243.177 74.7859 243.177 75.0052 242.958 75.2245C242.739 75.4438 242.519 75.4438 242.081 75.4438C241.203 75.4438 240.546 75.2245 240.107 74.3473L238.791 75.2245C239.01 75.8825 239.668 76.3211 240.107 76.5404C240.765 76.979 241.423 76.9791 242.081 76.9791C242.958 76.9791 243.616 76.7597 244.274 76.3211C244.932 75.8825 245.151 75.2245 245.151 74.5666C245.151 73.9087 244.932 73.47 244.713 73.0314C244.055 73.0314 243.616 72.5928 242.739 72.1541Z" fill="white"/>
<path d="M245.589 70.1807H248.44V77.1987H250.194V70.1807H252.826V68.6455H245.589V70.1807Z" fill="white"/>
<path d="M255.674 73.4704H258.745V71.9352H255.674V70.1807H259.622V68.6455H253.92V77.1987H259.841V75.6636H255.674V73.4704Z" fill="white"/>
<path d="M271.469 68.6455H269.715V77.1987H271.469V68.6455Z" fill="white"/>
<path d="M282.216 75.6636V73.4704H285.067V71.9352H282.216V70.1807H286.163V68.6455H280.461V77.1987H286.382V75.6636H282.216Z" fill="white"/>
<path d="M276.952 72.1541L276.074 71.7155C275.636 71.4962 275.416 71.4962 275.416 71.2769C275.197 71.0576 275.197 71.0576 275.197 70.8382C275.197 70.6189 275.197 70.3996 275.416 70.1803C275.636 69.961 275.855 69.961 276.074 69.961C276.732 69.961 277.171 70.1803 277.609 70.8382L278.925 69.961C278.706 69.5224 278.267 69.0837 277.829 68.8644C277.39 68.6451 276.732 68.4258 276.074 68.4258C275.197 68.4258 274.539 68.6451 274.1 69.0838C273.662 69.5224 273.223 70.1803 273.223 70.8382C273.223 71.4962 273.443 71.9348 273.662 72.1541C274.1 72.5928 274.539 72.8121 275.197 73.2507L276.074 73.6894C276.294 73.9087 276.513 73.9086 276.732 73.9086C276.952 73.9086 276.951 74.1279 277.171 74.1279C277.171 74.3473 277.39 74.3473 277.39 74.5666C277.39 74.7859 277.39 75.0052 277.171 75.2245C276.951 75.4438 276.732 75.4438 276.294 75.4438C275.416 75.4438 274.758 75.2245 274.32 74.3473L273.004 75.2245C273.223 75.8825 273.881 76.3211 274.32 76.5404C274.978 76.979 275.636 76.9791 276.294 76.9791C277.171 76.9791 277.829 76.7597 278.487 76.3211C279.145 75.8825 279.364 75.2245 279.364 74.5666C279.364 73.9087 279.145 73.47 278.925 73.0314C278.048 73.0314 277.609 72.5928 276.952 72.1541Z" fill="white"/>
<path d="M267.3 72.8125C267.52 72.3738 267.739 71.9352 267.739 71.2773C267.739 70.4 267.52 69.7421 266.862 69.3035C266.204 68.8649 265.546 68.6455 264.669 68.6455H261.379V77.1987H263.133V70.1807H264.669C265.107 70.1807 265.326 70.4 265.546 70.6193C265.765 70.8386 265.984 71.058 265.984 71.4966C265.984 71.9353 265.984 72.1546 265.765 72.3739L265.546 72.5932L263.353 73.909H264.23L266.642 77.1987H268.616L266.204 73.909C266.642 73.4704 266.862 73.2511 267.3 72.8125Z" fill="white"/>
<path d="M230.019 77.1983H231.773L233.966 72.1541L235.063 74.5666L232.87 76.1018H235.721L236.379 77.1983H238.133L233.966 68.4258L230.019 77.1983Z" fill="white"/>
<path d="M269.276 57.241L264.013 53.9513V26.5371L269.276 29.8268V57.241Z" fill="white"/>
<path d="M283.092 57.241L288.355 53.9513V26.5371L283.092 29.8268V57.241Z" fill="white"/>
<path d="M308.749 68.4258V77.1983H310.504V73.0314L312.916 75.6632L315.328 73.0314V77.1983H317.083V68.4258L312.916 73.0314L308.749 68.4258Z" fill="white"/>
<path d="M329.807 72.1541L328.929 71.7155C328.491 71.4962 328.271 71.4962 328.052 71.2769C327.833 71.0576 327.833 71.0576 327.833 70.8382C327.833 70.6189 327.833 70.3996 328.052 70.1803C328.271 69.961 328.491 69.961 328.71 69.961C329.368 69.961 329.807 70.1803 330.245 70.8382L331.561 69.961C331.342 69.5224 330.903 69.0837 330.465 68.8644C330.026 68.6451 329.368 68.4258 328.71 68.4258C327.833 68.4258 327.175 68.6451 326.736 69.0838C326.298 69.5224 325.859 70.1803 325.859 70.8382C325.859 71.4962 326.078 71.9348 326.298 72.1541C326.736 72.5928 327.175 72.8121 327.833 73.2507L328.71 73.6894C328.929 73.9087 329.149 73.9086 329.368 73.9086C329.587 73.9086 329.587 74.1279 329.807 74.1279C329.807 74.3473 330.026 74.3473 330.026 74.5666C330.026 74.7859 330.026 75.0052 329.807 75.2245C329.587 75.4438 329.368 75.4438 328.929 75.4438C328.052 75.4438 327.394 75.2245 326.955 74.3473L325.64 75.2245C325.859 75.8825 326.517 76.3211 326.955 76.5404C327.613 76.979 328.271 76.9791 328.929 76.9791C329.807 76.9791 330.465 76.7597 331.122 76.3211C331.78 75.8825 332 75.2245 332 74.5666C332 73.9087 331.78 73.47 331.561 73.0314C331.123 73.0314 330.464 72.5928 329.807 72.1541Z" fill="white"/>
<path d="M297.127 77.1987H295.372V73.4704H291.644V77.1987H289.89V68.6455H291.644V71.9352H295.372V68.6455H297.127V77.1987Z" fill="white"/>
<path d="M301.076 70.8382C300.637 71.2769 300.198 71.9348 300.198 72.8121C300.198 73.6893 300.418 74.3473 300.856 74.7859C301.295 75.2246 301.953 75.6632 302.83 75.6632C303.707 75.6632 304.365 75.4439 304.804 74.7859C305.243 74.3473 305.681 73.6893 305.681 72.8121C305.681 71.9348 305.462 71.2769 304.804 70.8382C304.365 70.3996 303.707 69.961 302.83 69.961C302.172 70.1803 301.514 70.3996 301.076 70.8382ZM306.12 69.7417C306.997 70.6189 307.436 71.7155 307.436 72.8121C307.436 74.1279 306.997 75.0052 306.12 75.8825C305.243 76.7597 304.146 77.1983 302.83 77.1983C301.514 77.1983 300.418 76.7597 299.54 75.8825C298.663 75.0052 298.225 73.9086 298.225 72.8121C298.225 71.4962 298.663 70.6189 299.54 69.7417C300.418 68.8644 301.514 68.4258 302.83 68.4258C304.146 68.4258 305.243 68.8644 306.12 69.7417Z" fill="white"/>
<path d="M324.761 70.1807H320.813V71.9352H323.664V73.4704H320.813V75.6636H324.761V77.1987H319.059V68.6455H324.761V70.1807Z" fill="white"/>
</svg>
