<svg width="1920" height="133" viewBox="0 0 1920 133" fill="none" xmlns="http://www.w3.org/2000/svg">
<g clip-path="url(#clip0_398_14575)">
<path d="M159.871 5.01953L84.8169 5.01953L84.8169 6.10175L159.871 6.10175L159.871 5.01953Z" fill="white" fill-opacity="0.08"/>
<path d="M159.871 13.2461L84.8169 13.2461L84.8169 14.325L159.871 14.325L159.871 13.2461Z" fill="white" fill-opacity="0.08"/>
<path d="M159.871 21.4629L84.8169 21.4629L84.8169 22.5451L159.871 22.5451L159.871 21.4629Z" fill="white" fill-opacity="0.08"/>
<path d="M159.871 29.6865L84.8169 29.6865L84.8169 30.7654L159.871 30.7654L159.871 29.6865Z" fill="white" fill-opacity="0.08"/>
<path d="M159.871 37.9092L84.8169 37.9092L84.8169 38.9914L159.871 38.9914L159.871 37.9092Z" fill="white" fill-opacity="0.08"/>
<path d="M159.871 46.126L84.8169 46.126L84.8169 46.8036L159.871 46.8036L159.871 46.126Z" fill="white" fill-opacity="0.08"/>
<path d="M94.7132 -2.6582L93.625 -2.6582L93.625 5.56192L94.7132 5.56192L94.7132 -2.6582Z" fill="white" fill-opacity="0.08"/>
<path d="M122.268 -2.6582L121.18 -2.6582L121.18 5.56192L122.268 5.56192L122.268 -2.6582Z" fill="white" fill-opacity="0.08"/>
<path d="M149.819 -2.6582L148.731 -2.6582L148.731 5.56192L149.819 5.56192L149.819 -2.6582Z" fill="white" fill-opacity="0.08"/>
<path d="M108.492 5.56152L107.404 5.56152L107.404 13.7816L108.492 13.7816L108.492 5.56152Z" fill="white" fill-opacity="0.08"/>
<path d="M136.043 5.56152L134.955 5.56152L134.955 13.7816L136.043 13.7816L136.043 5.56152Z" fill="white" fill-opacity="0.08"/>
<path d="M94.7132 13.7822L93.625 13.7822L93.625 22.0023L94.7132 22.0023L94.7132 13.7822Z" fill="white" fill-opacity="0.08"/>
<path d="M122.268 13.7822L121.18 13.7822L121.18 22.0023L122.268 22.0023L122.268 13.7822Z" fill="white" fill-opacity="0.08"/>
<path d="M149.819 13.7822L148.731 13.7822L148.731 22.0023L149.819 22.0023L149.819 13.7822Z" fill="white" fill-opacity="0.08"/>
<path d="M108.492 22.0059L107.404 22.0059L107.404 30.226L108.492 30.226L108.492 22.0059Z" fill="white" fill-opacity="0.08"/>
<path d="M136.043 22.0059L134.955 22.0059L134.955 30.226L136.043 30.226L136.043 22.0059Z" fill="white" fill-opacity="0.08"/>
<path d="M94.7132 30.2256L93.625 30.2256L93.625 38.449L94.7132 38.449L94.7132 30.2256Z" fill="white" fill-opacity="0.08"/>
<path d="M122.268 30.2256L121.18 30.2256L121.18 38.449L122.268 38.449L122.268 30.2256Z" fill="white" fill-opacity="0.08"/>
<path d="M149.819 30.2256L148.731 30.2256L148.731 38.449L149.819 38.449L149.819 30.2256Z" fill="white" fill-opacity="0.08"/>
<path d="M108.492 38.4492L107.404 38.4492L107.404 46.6693L108.492 46.6693L108.492 38.4492Z" fill="white" fill-opacity="0.08"/>
<path d="M136.043 38.4492L134.955 38.4492L134.955 46.6693L136.043 46.6693L136.043 38.4492Z" fill="white" fill-opacity="0.08"/>
<path d="M94.7132 46.6689L93.625 46.6689L93.625 46.8038L94.7132 46.8038L94.7132 46.6689Z" fill="white" fill-opacity="0.08"/>
<path d="M122.268 46.6689L121.18 46.6689L121.18 46.8038L122.268 46.8038L122.268 46.6689Z" fill="white" fill-opacity="0.08"/>
<path d="M149.819 46.6689L148.731 46.6689L148.731 46.8038L149.819 46.8038L149.819 46.6689Z" fill="white" fill-opacity="0.08"/>
<path d="M320.342 5.01953L245.288 5.01953L245.288 6.10175L320.342 6.10175L320.342 5.01953Z" fill="white" fill-opacity="0.08"/>
<path d="M320.342 13.2461L245.288 13.2461L245.288 14.325L320.342 14.325L320.342 13.2461Z" fill="white" fill-opacity="0.08"/>
<path d="M320.342 21.4629L245.288 21.4629L245.288 22.5451L320.342 22.5451L320.342 21.4629Z" fill="white" fill-opacity="0.08"/>
<path d="M320.342 29.6865L245.288 29.6865L245.288 30.7654L320.342 30.7654L320.342 29.6865Z" fill="white" fill-opacity="0.08"/>
<path d="M320.342 37.9092L245.288 37.9092L245.288 38.9914L320.342 38.9914L320.342 37.9092Z" fill="white" fill-opacity="0.08"/>
<path d="M320.342 46.126L245.288 46.126L245.288 46.8036L320.342 46.8036L320.342 46.126Z" fill="white" fill-opacity="0.08"/>
<path d="M255.184 -2.6582L254.096 -2.6582L254.096 5.56192L255.184 5.56192L255.184 -2.6582Z" fill="white" fill-opacity="0.08"/>
<path d="M282.739 -2.6582L281.651 -2.6582L281.651 5.56192L282.739 5.56192L282.739 -2.6582Z" fill="white" fill-opacity="0.08"/>
<path d="M310.29 -2.6582L309.202 -2.6582L309.202 5.56192L310.29 5.56192L310.29 -2.6582Z" fill="white" fill-opacity="0.08"/>
<path d="M268.963 5.56152L267.875 5.56152L267.875 13.7816L268.963 13.7816L268.963 5.56152Z" fill="white" fill-opacity="0.08"/>
<path d="M296.514 5.56152L295.426 5.56152L295.426 13.7816L296.514 13.7816L296.514 5.56152Z" fill="white" fill-opacity="0.08"/>
<path d="M255.184 13.7822L254.096 13.7822L254.096 22.0023L255.184 22.0023L255.184 13.7822Z" fill="white" fill-opacity="0.08"/>
<path d="M282.739 13.7822L281.651 13.7822L281.651 22.0023L282.739 22.0023L282.739 13.7822Z" fill="white" fill-opacity="0.08"/>
<path d="M310.29 13.7822L309.202 13.7822L309.202 22.0023L310.29 22.0023L310.29 13.7822Z" fill="white" fill-opacity="0.08"/>
<path d="M268.963 22.0059L267.875 22.0059L267.875 30.226L268.963 30.226L268.963 22.0059Z" fill="white" fill-opacity="0.08"/>
<path d="M296.514 22.0059L295.426 22.0059L295.426 30.226L296.514 30.226L296.514 22.0059Z" fill="white" fill-opacity="0.08"/>
<path d="M255.184 30.2256L254.096 30.2256L254.096 38.449L255.184 38.449L255.184 30.2256Z" fill="white" fill-opacity="0.08"/>
<path d="M282.739 30.2256L281.651 30.2256L281.651 38.449L282.739 38.449L282.739 30.2256Z" fill="white" fill-opacity="0.08"/>
<path d="M310.29 30.2256L309.202 30.2256L309.202 38.449L310.29 38.449L310.29 30.2256Z" fill="white" fill-opacity="0.08"/>
<path d="M268.963 38.4492L267.875 38.4492L267.875 46.6693L268.963 46.6693L268.963 38.4492Z" fill="white" fill-opacity="0.08"/>
<path d="M296.514 38.4492L295.426 38.4492L295.426 46.6693L296.514 46.6693L296.514 38.4492Z" fill="white" fill-opacity="0.08"/>
<path d="M255.184 46.6689L254.096 46.6689L254.096 46.8038L255.184 46.8038L255.184 46.6689Z" fill="white" fill-opacity="0.08"/>
<path d="M282.739 46.6689L281.651 46.6689L281.651 46.8038L282.739 46.8038L282.739 46.6689Z" fill="white" fill-opacity="0.08"/>
<path d="M310.29 46.6689L309.202 46.6689L309.202 46.8038L310.29 46.8038L310.29 46.6689Z" fill="white" fill-opacity="0.08"/>
<path d="M480.814 5.01953L405.76 5.01953L405.76 6.10175L480.814 6.10175L480.814 5.01953Z" fill="white" fill-opacity="0.08"/>
<path d="M480.814 13.2461L405.76 13.2461L405.76 14.325L480.814 14.325L480.814 13.2461Z" fill="white" fill-opacity="0.08"/>
<path d="M480.814 21.4629L405.76 21.4629L405.76 22.5451L480.814 22.5451L480.814 21.4629Z" fill="white" fill-opacity="0.08"/>
<path d="M480.814 29.6865L405.76 29.6865L405.76 30.7654L480.814 30.7654L480.814 29.6865Z" fill="white" fill-opacity="0.08"/>
<path d="M480.814 37.9092L405.76 37.9092L405.76 38.9914L480.814 38.9914L480.814 37.9092Z" fill="white" fill-opacity="0.08"/>
<path d="M480.814 46.126L405.76 46.126L405.76 46.8036L480.814 46.8036L480.814 46.126Z" fill="white" fill-opacity="0.08"/>
<path d="M415.656 -2.6582L414.568 -2.6582L414.568 5.56192L415.656 5.56192L415.656 -2.6582Z" fill="white" fill-opacity="0.08"/>
<path d="M443.211 -2.6582L442.123 -2.6582L442.123 5.56192L443.211 5.56192L443.211 -2.6582Z" fill="white" fill-opacity="0.08"/>
<path d="M470.762 -2.6582L469.674 -2.6582L469.674 5.56192L470.762 5.56192L470.762 -2.6582Z" fill="white" fill-opacity="0.08"/>
<path d="M429.435 5.56152L428.347 5.56152L428.347 13.7816L429.435 13.7816L429.435 5.56152Z" fill="white" fill-opacity="0.08"/>
<path d="M456.986 5.56152L455.898 5.56152L455.898 13.7816L456.986 13.7816L456.986 5.56152Z" fill="white" fill-opacity="0.08"/>
<path d="M415.656 13.7822L414.568 13.7822L414.568 22.0023L415.656 22.0023L415.656 13.7822Z" fill="white" fill-opacity="0.08"/>
<path d="M443.211 13.7822L442.123 13.7822L442.123 22.0023L443.211 22.0023L443.211 13.7822Z" fill="white" fill-opacity="0.08"/>
<path d="M470.762 13.7822L469.674 13.7822L469.674 22.0023L470.762 22.0023L470.762 13.7822Z" fill="white" fill-opacity="0.08"/>
<path d="M429.435 22.0059L428.347 22.0059L428.347 30.226L429.435 30.226L429.435 22.0059Z" fill="white" fill-opacity="0.08"/>
<path d="M456.986 22.0059L455.898 22.0059L455.898 30.226L456.986 30.226L456.986 22.0059Z" fill="white" fill-opacity="0.08"/>
<path d="M415.656 30.2256L414.568 30.2256L414.568 38.449L415.656 38.449L415.656 30.2256Z" fill="white" fill-opacity="0.08"/>
<path d="M443.211 30.2256L442.123 30.2256L442.123 38.449L443.211 38.449L443.211 30.2256Z" fill="white" fill-opacity="0.08"/>
<path d="M470.762 30.2256L469.674 30.2256L469.674 38.449L470.762 38.449L470.762 30.2256Z" fill="white" fill-opacity="0.08"/>
<path d="M429.435 38.4492L428.347 38.4492L428.347 46.6693L429.435 46.6693L429.435 38.4492Z" fill="white" fill-opacity="0.08"/>
<path d="M456.986 38.4492L455.898 38.4492L455.898 46.6693L456.986 46.6693L456.986 38.4492Z" fill="white" fill-opacity="0.08"/>
<path d="M415.656 46.6689L414.568 46.6689L414.568 46.8038L415.656 46.8038L415.656 46.6689Z" fill="white" fill-opacity="0.08"/>
<path d="M443.211 46.6689L442.123 46.6689L442.123 46.8038L443.211 46.8038L443.211 46.6689Z" fill="white" fill-opacity="0.08"/>
<path d="M470.762 46.6689L469.674 46.6689L469.674 46.8038L470.762 46.8038L470.762 46.6689Z" fill="white" fill-opacity="0.08"/>
<path d="M33.1372 -27.8359L4.5835 0.557605L4.5835 2.42945L35.0158 -27.8359L33.1372 -27.8359ZM49.205 -27.8359L79.6373 2.42945L79.6373 0.557606L51.0869 -27.8359L49.205 -27.8359Z" fill="white" fill-opacity="0.08"/>
<path d="M4.58301 12.1059L4.58301 13.9805L42.1099 -23.3434L79.6368 13.9805L79.6368 12.1059L42.5795 -24.7448L42.1099 -25.2119L4.58301 12.1059Z" fill="white" fill-opacity="0.08"/>
<path d="M4.58301 23.6544L4.58301 25.5295L42.1099 -11.7917L79.6368 25.5295L79.6368 23.6544L42.5795 -13.1961L42.1099 -13.6631L4.58301 23.6544Z" fill="white" fill-opacity="0.08"/>
<path d="M4.58301 35.2065L4.58301 37.0782L42.1099 -0.242912L79.6368 37.0782L79.6368 35.2065L42.5795 -1.64738L42.1099 -2.11133L4.58301 35.2065Z" fill="white" fill-opacity="0.08"/>
<path d="M4.58301 46.7553L4.58301 46.8047L6.41537 46.8047L42.1099 11.306L77.8011 46.8047L79.6368 46.8047L79.6368 46.7553L42.5795 9.90477L42.1099 9.4375L4.58301 46.7553Z" fill="white" fill-opacity="0.08"/>
<path d="M16.146 46.805L18.028 46.805L42.1099 22.8551L66.1918 46.805L68.0738 46.805L42.5829 21.4506L42.1099 20.9834L16.146 46.805Z" fill="white" fill-opacity="0.08"/>
<path d="M27.7593 46.8048L29.6446 46.8048L42.1105 34.4073L54.5765 46.8048L56.4618 46.8048L42.5802 32.9995L42.1105 32.5322L27.7593 46.8048Z" fill="white" fill-opacity="0.08"/>
<path d="M39.375 46.8056L41.2569 46.8056L42.1103 45.9568L42.9637 46.8056L44.8456 46.8056L42.5799 44.5522L42.1103 44.085L39.375 46.8056Z" fill="white" fill-opacity="0.08"/>
<path d="M193.606 -27.8359L165.053 0.557605L165.053 2.42945L195.485 -27.8359L193.606 -27.8359ZM209.674 -27.8359L240.107 2.42945L240.107 0.557606L211.556 -27.8359L209.674 -27.8359Z" fill="white" fill-opacity="0.08"/>
<path d="M165.052 12.1059L165.052 13.9805L202.579 -23.3434L240.106 13.9805L240.106 12.1059L203.049 -24.7448L202.579 -25.2119L165.052 12.1059Z" fill="white" fill-opacity="0.08"/>
<path d="M165.052 23.6544L165.052 25.5295L202.579 -11.7917L240.106 25.5295L240.106 23.6544L203.049 -13.1961L202.579 -13.6631L165.052 23.6544Z" fill="white" fill-opacity="0.08"/>
<path d="M165.052 35.2065L165.052 37.0782L202.579 -0.242912L240.106 37.0782L240.106 35.2065L203.049 -1.64738L202.579 -2.11133L165.052 35.2065Z" fill="white" fill-opacity="0.08"/>
<path d="M165.052 46.7553L165.052 46.8047L166.885 46.8047L202.579 11.306L238.27 46.8047L240.106 46.8047L240.106 46.7553L203.049 9.90477L202.579 9.4375L165.052 46.7553Z" fill="white" fill-opacity="0.08"/>
<path d="M176.615 46.805L178.497 46.805L202.579 22.8551L226.661 46.805L228.543 46.805L203.052 21.4506L202.579 20.9834L176.615 46.805Z" fill="white" fill-opacity="0.08"/>
<path d="M188.229 46.8048L190.114 46.8048L202.58 34.4073L215.046 46.8048L216.931 46.8048L203.049 32.9995L202.58 32.5322L188.229 46.8048Z" fill="white" fill-opacity="0.08"/>
<path d="M199.844 46.8056L201.726 46.8056L202.58 45.9568L203.433 46.8056L205.315 46.8056L203.049 44.5522L202.58 44.085L199.844 46.8056Z" fill="white" fill-opacity="0.08"/>
<path d="M354.078 -27.8359L325.524 0.557605L325.524 2.42945L355.956 -27.8359L354.078 -27.8359ZM370.145 -27.8359L400.578 2.42945L400.578 0.557606L372.027 -27.8359L370.145 -27.8359Z" fill="white" fill-opacity="0.08"/>
<path d="M325.523 12.1059L325.523 13.9805L363.05 -23.3434L400.577 13.9805L400.577 12.1059L363.52 -24.7448L363.05 -25.2119L325.523 12.1059Z" fill="white" fill-opacity="0.08"/>
<path d="M325.523 23.6544L325.523 25.5295L363.05 -11.7917L400.577 25.5295L400.577 23.6544L363.52 -13.1961L363.05 -13.6631L325.523 23.6544Z" fill="white" fill-opacity="0.08"/>
<path d="M325.523 35.2065L325.523 37.0782L363.05 -0.242912L400.577 37.0782L400.577 35.2065L363.52 -1.64738L363.05 -2.11133L325.523 35.2065Z" fill="white" fill-opacity="0.08"/>
<path d="M325.523 46.7553L325.523 46.8047L327.356 46.8047L363.05 11.306L398.742 46.8047L400.577 46.8047L400.577 46.7553L363.52 9.90477L363.05 9.4375L325.523 46.7553Z" fill="white" fill-opacity="0.08"/>
<path d="M337.086 46.805L338.968 46.805L363.05 22.8551L387.132 46.805L389.014 46.805L363.523 21.4506L363.05 20.9834L337.086 46.805Z" fill="white" fill-opacity="0.08"/>
<path d="M348.7 46.8048L350.585 46.8048L363.051 34.4073L375.517 46.8048L377.402 46.8048L363.521 32.9995L363.051 32.5322L348.7 46.8048Z" fill="white" fill-opacity="0.08"/>
<path d="M360.315 46.8056L362.197 46.8056L363.051 45.9568L363.904 46.8056L365.786 46.8056L363.52 44.5522L363.051 44.085L360.315 46.8056Z" fill="white" fill-opacity="0.08"/>
<path d="M641.282 5.01953L566.229 5.01953L566.229 6.10175L641.282 6.10175L641.282 5.01953Z" fill="white" fill-opacity="0.08"/>
<path d="M641.282 13.2461L566.229 13.2461L566.229 14.325L641.282 14.325L641.282 13.2461Z" fill="white" fill-opacity="0.08"/>
<path d="M641.282 21.4629L566.229 21.4629L566.229 22.5451L641.282 22.5451L641.282 21.4629Z" fill="white" fill-opacity="0.08"/>
<path d="M641.282 29.6865L566.229 29.6865L566.229 30.7654L641.282 30.7654L641.282 29.6865Z" fill="white" fill-opacity="0.08"/>
<path d="M641.282 37.9092L566.229 37.9092L566.229 38.9914L641.282 38.9914L641.282 37.9092Z" fill="white" fill-opacity="0.08"/>
<path d="M641.282 46.126L566.229 46.126L566.229 46.8036L641.282 46.8036L641.282 46.126Z" fill="white" fill-opacity="0.08"/>
<path d="M576.125 -2.6582L575.037 -2.6582L575.037 5.56192L576.125 5.56192L576.125 -2.6582Z" fill="white" fill-opacity="0.08"/>
<path d="M603.68 -2.6582L602.591 -2.6582L602.591 5.56192L603.68 5.56192L603.68 -2.6582Z" fill="white" fill-opacity="0.08"/>
<path d="M631.231 -2.6582L630.143 -2.6582L630.143 5.56192L631.231 5.56192L631.231 -2.6582Z" fill="white" fill-opacity="0.08"/>
<path d="M589.904 5.56152L588.815 5.56152L588.815 13.7816L589.904 13.7816L589.904 5.56152Z" fill="white" fill-opacity="0.08"/>
<path d="M617.455 5.56152L616.367 5.56152L616.367 13.7816L617.455 13.7816L617.455 5.56152Z" fill="white" fill-opacity="0.08"/>
<path d="M576.125 13.7822L575.037 13.7822L575.037 22.0023L576.125 22.0023L576.125 13.7822Z" fill="white" fill-opacity="0.08"/>
<path d="M603.68 13.7822L602.591 13.7822L602.591 22.0023L603.68 22.0023L603.68 13.7822Z" fill="white" fill-opacity="0.08"/>
<path d="M631.231 13.7822L630.143 13.7822L630.143 22.0023L631.231 22.0023L631.231 13.7822Z" fill="white" fill-opacity="0.08"/>
<path d="M589.904 22.0059L588.815 22.0059L588.815 30.226L589.904 30.226L589.904 22.0059Z" fill="white" fill-opacity="0.08"/>
<path d="M617.455 22.0059L616.367 22.0059L616.367 30.226L617.455 30.226L617.455 22.0059Z" fill="white" fill-opacity="0.08"/>
<path d="M576.125 30.2256L575.037 30.2256L575.037 38.449L576.125 38.449L576.125 30.2256Z" fill="white" fill-opacity="0.08"/>
<path d="M603.68 30.2256L602.591 30.2256L602.591 38.449L603.68 38.449L603.68 30.2256Z" fill="white" fill-opacity="0.08"/>
<path d="M631.231 30.2256L630.143 30.2256L630.143 38.449L631.231 38.449L631.231 30.2256Z" fill="white" fill-opacity="0.08"/>
<path d="M589.904 38.4492L588.815 38.4492L588.815 46.6693L589.904 46.6693L589.904 38.4492Z" fill="white" fill-opacity="0.08"/>
<path d="M617.455 38.4492L616.367 38.4492L616.367 46.6693L617.455 46.6693L617.455 38.4492Z" fill="white" fill-opacity="0.08"/>
<path d="M576.125 46.6689L575.037 46.6689L575.037 46.8038L576.125 46.8038L576.125 46.6689Z" fill="white" fill-opacity="0.08"/>
<path d="M603.68 46.6689L602.591 46.6689L602.591 46.8038L603.68 46.8038L603.68 46.6689Z" fill="white" fill-opacity="0.08"/>
<path d="M631.231 46.6689L630.143 46.6689L630.143 46.8038L631.231 46.8038L631.231 46.6689Z" fill="white" fill-opacity="0.08"/>
<path d="M801.754 5.01953L726.701 5.01953L726.701 6.10175L801.754 6.10175L801.754 5.01953Z" fill="white" fill-opacity="0.08"/>
<path d="M801.754 13.2461L726.701 13.2461L726.701 14.325L801.754 14.325L801.754 13.2461Z" fill="white" fill-opacity="0.08"/>
<path d="M801.754 21.4629L726.701 21.4629L726.701 22.5451L801.754 22.5451L801.754 21.4629Z" fill="white" fill-opacity="0.08"/>
<path d="M801.754 29.6865L726.701 29.6865L726.701 30.7654L801.754 30.7654L801.754 29.6865Z" fill="white" fill-opacity="0.08"/>
<path d="M801.754 37.9092L726.701 37.9092L726.701 38.9914L801.754 38.9914L801.754 37.9092Z" fill="white" fill-opacity="0.08"/>
<path d="M801.754 46.126L726.701 46.126L726.701 46.8036L801.754 46.8036L801.754 46.126Z" fill="white" fill-opacity="0.08"/>
<path d="M736.597 -2.6582L735.509 -2.6582L735.509 5.56192L736.597 5.56192L736.597 -2.6582Z" fill="white" fill-opacity="0.08"/>
<path d="M764.152 -2.6582L763.063 -2.6582L763.063 5.56192L764.152 5.56192L764.152 -2.6582Z" fill="white" fill-opacity="0.08"/>
<path d="M791.703 -2.6582L790.615 -2.6582L790.615 5.56192L791.703 5.56192L791.703 -2.6582Z" fill="white" fill-opacity="0.08"/>
<path d="M750.376 5.56152L749.288 5.56152L749.288 13.7816L750.376 13.7816L750.376 5.56152Z" fill="white" fill-opacity="0.08"/>
<path d="M777.928 5.56152L776.839 5.56152L776.839 13.7816L777.928 13.7816L777.928 5.56152Z" fill="white" fill-opacity="0.08"/>
<path d="M736.597 13.7822L735.509 13.7822L735.509 22.0023L736.597 22.0023L736.597 13.7822Z" fill="white" fill-opacity="0.08"/>
<path d="M764.152 13.7822L763.063 13.7822L763.063 22.0023L764.152 22.0023L764.152 13.7822Z" fill="white" fill-opacity="0.08"/>
<path d="M791.703 13.7822L790.615 13.7822L790.615 22.0023L791.703 22.0023L791.703 13.7822Z" fill="white" fill-opacity="0.08"/>
<path d="M750.376 22.0059L749.288 22.0059L749.288 30.226L750.376 30.226L750.376 22.0059Z" fill="white" fill-opacity="0.08"/>
<path d="M777.928 22.0059L776.839 22.0059L776.839 30.226L777.928 30.226L777.928 22.0059Z" fill="white" fill-opacity="0.08"/>
<path d="M736.597 30.2256L735.509 30.2256L735.509 38.449L736.597 38.449L736.597 30.2256Z" fill="white" fill-opacity="0.08"/>
<path d="M764.152 30.2256L763.063 30.2256L763.063 38.449L764.152 38.449L764.152 30.2256Z" fill="white" fill-opacity="0.08"/>
<path d="M791.703 30.2256L790.615 30.2256L790.615 38.449L791.703 38.449L791.703 30.2256Z" fill="white" fill-opacity="0.08"/>
<path d="M750.376 38.4492L749.288 38.4492L749.288 46.6693L750.376 46.6693L750.376 38.4492Z" fill="white" fill-opacity="0.08"/>
<path d="M777.928 38.4492L776.839 38.4492L776.839 46.6693L777.928 46.6693L777.928 38.4492Z" fill="white" fill-opacity="0.08"/>
<path d="M736.597 46.6689L735.509 46.6689L735.509 46.8038L736.597 46.8038L736.597 46.6689Z" fill="white" fill-opacity="0.08"/>
<path d="M764.152 46.6689L763.063 46.6689L763.063 46.8038L764.152 46.8038L764.152 46.6689Z" fill="white" fill-opacity="0.08"/>
<path d="M791.703 46.6689L790.615 46.6689L790.615 46.8038L791.703 46.8038L791.703 46.6689Z" fill="white" fill-opacity="0.08"/>
<path d="M962.225 5.01953L887.171 5.01953L887.171 6.10175L962.225 6.10175L962.225 5.01953Z" fill="white" fill-opacity="0.08"/>
<path d="M962.225 13.2461L887.171 13.2461L887.171 14.325L962.225 14.325L962.225 13.2461Z" fill="white" fill-opacity="0.08"/>
<path d="M962.225 21.4629L887.171 21.4629L887.171 22.5451L962.225 22.5451L962.225 21.4629Z" fill="white" fill-opacity="0.08"/>
<path d="M962.225 29.6865L887.171 29.6865L887.171 30.7654L962.225 30.7654L962.225 29.6865Z" fill="white" fill-opacity="0.08"/>
<path d="M962.225 37.9092L887.171 37.9092L887.171 38.9914L962.225 38.9914L962.225 37.9092Z" fill="white" fill-opacity="0.08"/>
<path d="M962.225 46.126L887.171 46.126L887.171 46.8036L962.225 46.8036L962.225 46.126Z" fill="white" fill-opacity="0.08"/>
<path d="M897.068 -2.6582L895.979 -2.6582L895.979 5.56192L897.068 5.56192L897.068 -2.6582Z" fill="white" fill-opacity="0.08"/>
<path d="M924.622 -2.6582L923.534 -2.6582L923.534 5.56192L924.622 5.56192L924.622 -2.6582Z" fill="white" fill-opacity="0.08"/>
<path d="M952.174 -2.6582L951.085 -2.6582L951.085 5.56192L952.174 5.56192L952.174 -2.6582Z" fill="white" fill-opacity="0.08"/>
<path d="M910.847 5.56152L909.758 5.56152L909.758 13.7816L910.847 13.7816L910.847 5.56152Z" fill="white" fill-opacity="0.08"/>
<path d="M938.398 5.56152L937.31 5.56152L937.31 13.7816L938.398 13.7816L938.398 5.56152Z" fill="white" fill-opacity="0.08"/>
<path d="M897.068 13.7822L895.979 13.7822L895.979 22.0023L897.068 22.0023L897.068 13.7822Z" fill="white" fill-opacity="0.08"/>
<path d="M924.622 13.7822L923.534 13.7822L923.534 22.0023L924.622 22.0023L924.622 13.7822Z" fill="white" fill-opacity="0.08"/>
<path d="M952.174 13.7822L951.085 13.7822L951.085 22.0023L952.174 22.0023L952.174 13.7822Z" fill="white" fill-opacity="0.08"/>
<path d="M910.847 22.0059L909.758 22.0059L909.758 30.226L910.847 30.226L910.847 22.0059Z" fill="white" fill-opacity="0.08"/>
<path d="M938.398 22.0059L937.31 22.0059L937.31 30.226L938.398 30.226L938.398 22.0059Z" fill="white" fill-opacity="0.08"/>
<path d="M897.068 30.2256L895.979 30.2256L895.979 38.449L897.068 38.449L897.068 30.2256Z" fill="white" fill-opacity="0.08"/>
<path d="M924.622 30.2256L923.534 30.2256L923.534 38.449L924.622 38.449L924.622 30.2256Z" fill="white" fill-opacity="0.08"/>
<path d="M952.174 30.2256L951.085 30.2256L951.085 38.449L952.174 38.449L952.174 30.2256Z" fill="white" fill-opacity="0.08"/>
<path d="M910.847 38.4492L909.758 38.4492L909.758 46.6693L910.847 46.6693L910.847 38.4492Z" fill="white" fill-opacity="0.08"/>
<path d="M938.398 38.4492L937.31 38.4492L937.31 46.6693L938.398 46.6693L938.398 38.4492Z" fill="white" fill-opacity="0.08"/>
<path d="M897.068 46.6689L895.979 46.6689L895.979 46.8038L897.068 46.8038L897.068 46.6689Z" fill="white" fill-opacity="0.08"/>
<path d="M924.622 46.6689L923.534 46.6689L923.534 46.8038L924.622 46.8038L924.622 46.6689Z" fill="white" fill-opacity="0.08"/>
<path d="M952.174 46.6689L951.085 46.6689L951.085 46.8038L952.174 46.8038L952.174 46.6689Z" fill="white" fill-opacity="0.08"/>
<path d="M514.548 -27.8359L485.995 0.557605L485.995 2.42945L516.427 -27.8359L514.548 -27.8359ZM530.616 -27.8359L561.048 2.42945L561.048 0.557606L532.498 -27.8359L530.616 -27.8359Z" fill="white" fill-opacity="0.08"/>
<path d="M485.994 12.1059L485.994 13.9805L523.521 -23.3434L561.048 13.9805L561.048 12.1059L523.991 -24.7448L523.521 -25.2119L485.994 12.1059Z" fill="white" fill-opacity="0.08"/>
<path d="M485.994 23.6544L485.994 25.5295L523.521 -11.7917L561.048 25.5295L561.048 23.6544L523.991 -13.1961L523.521 -13.6631L485.994 23.6544Z" fill="white" fill-opacity="0.08"/>
<path d="M485.994 35.2065L485.994 37.0782L523.521 -0.242912L561.048 37.0782L561.048 35.2065L523.991 -1.64738L523.521 -2.11133L485.994 35.2065Z" fill="white" fill-opacity="0.08"/>
<path d="M485.994 46.7553L485.994 46.8047L487.827 46.8047L523.521 11.306L559.212 46.8047L561.048 46.8047L561.048 46.7553L523.991 9.90477L523.521 9.4375L485.994 46.7553Z" fill="white" fill-opacity="0.08"/>
<path d="M497.557 46.805L499.439 46.805L523.521 22.8551L547.603 46.805L549.485 46.805L523.994 21.4506L523.521 20.9834L497.557 46.805Z" fill="white" fill-opacity="0.08"/>
<path d="M509.17 46.8048L511.056 46.8048L523.522 34.4073L535.988 46.8048L537.873 46.8048L523.991 32.9995L523.522 32.5322L509.17 46.8048Z" fill="white" fill-opacity="0.08"/>
<path d="M520.786 46.8056L522.668 46.8056L523.521 45.9568L524.375 46.8056L526.257 46.8056L523.991 44.5522L523.521 44.085L520.786 46.8056Z" fill="white" fill-opacity="0.08"/>
<path d="M675.02 -27.8359L646.466 0.557605L646.466 2.42945L676.899 -27.8359L675.02 -27.8359ZM691.088 -27.8359L721.52 2.42945L721.52 0.557606L692.97 -27.8359L691.088 -27.8359Z" fill="white" fill-opacity="0.08"/>
<path d="M646.466 12.1059L646.466 13.9805L683.993 -23.3434L721.52 13.9805L721.52 12.1059L684.462 -24.7448L683.993 -25.2119L646.466 12.1059Z" fill="white" fill-opacity="0.08"/>
<path d="M646.466 23.6544L646.466 25.5295L683.993 -11.7917L721.52 25.5295L721.52 23.6544L684.462 -13.1961L683.993 -13.6631L646.466 23.6544Z" fill="white" fill-opacity="0.08"/>
<path d="M646.466 35.2065L646.466 37.0782L683.993 -0.242912L721.52 37.0782L721.52 35.2065L684.462 -1.64738L683.993 -2.11133L646.466 35.2065Z" fill="white" fill-opacity="0.08"/>
<path d="M646.466 46.7553L646.466 46.8047L648.298 46.8047L683.993 11.306L719.684 46.8047L721.52 46.8047L721.52 46.7553L684.462 9.90477L683.993 9.4375L646.466 46.7553Z" fill="white" fill-opacity="0.08"/>
<path d="M658.029 46.805L659.911 46.805L683.993 22.8551L708.075 46.805L709.957 46.805L684.466 21.4506L683.993 20.9834L658.029 46.805Z" fill="white" fill-opacity="0.08"/>
<path d="M669.642 46.8048L671.527 46.8048L683.993 34.4073L696.459 46.8048L698.345 46.8048L684.463 32.9995L683.993 32.5322L669.642 46.8048Z" fill="white" fill-opacity="0.08"/>
<path d="M681.258 46.8056L683.14 46.8056L683.993 45.9568L684.846 46.8056L686.728 46.8056L684.463 44.5522L683.993 44.085L681.258 46.8056Z" fill="white" fill-opacity="0.08"/>
<path d="M835.489 -27.8359L806.936 0.557605L806.936 2.42945L837.368 -27.8359L835.489 -27.8359ZM851.557 -27.8359L881.989 2.42945L881.989 0.557606L853.439 -27.8359L851.557 -27.8359Z" fill="white" fill-opacity="0.08"/>
<path d="M806.935 12.1059L806.935 13.9805L844.462 -23.3434L881.989 13.9805L881.989 12.1059L844.932 -24.7448L844.462 -25.2119L806.935 12.1059Z" fill="white" fill-opacity="0.08"/>
<path d="M806.935 23.6544L806.935 25.5295L844.462 -11.7917L881.989 25.5295L881.989 23.6544L844.932 -13.1961L844.462 -13.6631L806.935 23.6544Z" fill="white" fill-opacity="0.08"/>
<path d="M806.935 35.2065L806.935 37.0782L844.462 -0.242912L881.989 37.0782L881.989 35.2065L844.932 -1.64738L844.462 -2.11133L806.935 35.2065Z" fill="white" fill-opacity="0.08"/>
<path d="M806.935 46.7553L806.935 46.8047L808.767 46.8047L844.462 11.306L880.153 46.8047L881.989 46.8047L881.989 46.7553L844.932 9.90477L844.462 9.4375L806.935 46.7553Z" fill="white" fill-opacity="0.08"/>
<path d="M818.499 46.805L820.38 46.805L844.462 22.8551L868.544 46.805L870.426 46.805L844.935 21.4506L844.462 20.9834L818.499 46.805Z" fill="white" fill-opacity="0.08"/>
<path d="M830.111 46.8048L831.997 46.8048L844.463 34.4073L856.929 46.8048L858.814 46.8048L844.932 32.9995L844.463 32.5322L830.111 46.8048Z" fill="white" fill-opacity="0.08"/>
<path d="M841.727 46.8056L843.609 46.8056L844.462 45.9568L845.316 46.8056L847.198 46.8056L844.932 44.5522L844.462 44.085L841.727 46.8056Z" fill="white" fill-opacity="0.08"/>
<path d="M86.6153 56.418L85.2856 56.418L85.2856 131.06L86.6153 131.06L86.6153 56.418Z" fill="white" fill-opacity="0.08"/>
<path d="M98.747 56.418L97.4141 56.418L97.4141 131.06L98.747 131.06L98.747 56.418Z" fill="white" fill-opacity="0.08"/>
<path d="M110.879 56.418L109.546 56.418L109.546 131.06L110.879 131.06L110.879 56.418Z" fill="white" fill-opacity="0.08"/>
<path d="M123.008 56.418L121.675 56.418L121.675 131.06L123.008 131.06L123.008 56.418Z" fill="white" fill-opacity="0.08"/>
<path d="M135.14 56.418L133.807 56.418L133.807 131.06L135.14 131.06L135.14 56.418Z" fill="white" fill-opacity="0.08"/>
<path d="M147.268 56.418L145.936 56.418L145.936 131.06L147.268 131.06L147.268 56.418Z" fill="white" fill-opacity="0.08"/>
<path d="M159.403 56.418L158.07 56.418L158.07 131.06L159.403 131.06L159.403 56.418Z" fill="white" fill-opacity="0.08"/>
<path d="M247.087 56.418L245.757 56.418L245.757 131.06L247.087 131.06L247.087 56.418Z" fill="white" fill-opacity="0.08"/>
<path d="M259.219 56.418L257.886 56.418L257.886 131.06L259.219 131.06L259.219 56.418Z" fill="white" fill-opacity="0.08"/>
<path d="M271.351 56.418L270.018 56.418L270.018 131.06L271.35 131.06L271.351 56.418Z" fill="white" fill-opacity="0.08"/>
<path d="M283.479 56.418L282.146 56.418L282.146 131.06L283.479 131.06L283.479 56.418Z" fill="white" fill-opacity="0.08"/>
<path d="M295.611 56.418L294.278 56.418L294.278 131.06L295.611 131.06L295.611 56.418Z" fill="white" fill-opacity="0.08"/>
<path d="M307.74 56.418L306.407 56.418L306.407 131.06L307.74 131.06L307.74 56.418Z" fill="white" fill-opacity="0.08"/>
<path d="M319.875 56.418L318.542 56.418L318.542 131.06L319.875 131.06L319.875 56.418Z" fill="white" fill-opacity="0.08"/>
<path d="M79.6363 55.9336L4.58252 55.9336L4.58252 57.2296L79.6363 57.2296L79.6363 55.9336Z" fill="white" fill-opacity="0.08"/>
<path d="M79.6363 63.0186L4.58252 63.0186L4.58252 64.5316L79.6363 64.5316L79.6363 63.0186Z" fill="white" fill-opacity="0.08"/>
<path d="M79.6363 70.3184L4.58252 70.3184L4.58252 71.8314L79.6363 71.8314L79.6363 70.3184Z" fill="white" fill-opacity="0.08"/>
<path d="M79.6363 77.623L4.58252 77.623L4.58252 79.1361L79.6363 79.1361L79.6363 77.623Z" fill="white" fill-opacity="0.08"/>
<path d="M79.6363 84.9229L4.58252 84.9229L4.58252 86.4359L79.6363 86.4359L79.6363 84.9229Z" fill="white" fill-opacity="0.08"/>
<path d="M79.6363 92.2256L4.58252 92.2256L4.58252 93.7387L79.6363 93.7387L79.6363 92.2256Z" fill="white" fill-opacity="0.08"/>
<path d="M79.6363 99.5303L4.58252 99.5303L4.58252 101.04L79.6363 101.04L79.6363 99.5303Z" fill="white" fill-opacity="0.08"/>
<path d="M79.6363 106.83L4.58252 106.83L4.58252 108.343L79.6363 108.343L79.6363 106.83Z" fill="white" fill-opacity="0.08"/>
<path d="M79.6363 114.129L4.58252 114.129L4.58252 115.642L79.6363 115.642L79.6363 114.129Z" fill="white" fill-opacity="0.08"/>
<path d="M79.6363 121.435L4.58252 121.435L4.58252 122.948L79.6363 122.948L79.6363 121.435Z" fill="white" fill-opacity="0.08"/>
<path d="M79.6363 128.733L4.58252 128.733L4.58252 130.246L79.6363 130.246L79.6363 128.733Z" fill="white" fill-opacity="0.08"/>
<path d="M240.107 55.9336L165.054 55.9336L165.054 57.2296L240.107 57.2296L240.107 55.9336Z" fill="white" fill-opacity="0.08"/>
<path d="M240.107 63.0186L165.054 63.0186L165.054 64.5316L240.107 64.5316L240.107 63.0186Z" fill="white" fill-opacity="0.08"/>
<path d="M240.107 70.3184L165.054 70.3184L165.054 71.8314L240.107 71.8314L240.107 70.3184Z" fill="white" fill-opacity="0.08"/>
<path d="M240.107 77.623L165.054 77.623L165.054 79.1361L240.107 79.1361L240.107 77.623Z" fill="white" fill-opacity="0.08"/>
<path d="M240.107 84.9229L165.054 84.9229L165.054 86.4359L240.107 86.4359L240.107 84.9229Z" fill="white" fill-opacity="0.08"/>
<path d="M240.107 92.2256L165.054 92.2256L165.054 93.7387L240.107 93.7387L240.107 92.2256Z" fill="white" fill-opacity="0.08"/>
<path d="M240.107 99.5303L165.054 99.5303L165.054 101.04L240.107 101.04L240.107 99.5303Z" fill="white" fill-opacity="0.08"/>
<path d="M240.107 106.83L165.054 106.83L165.054 108.343L240.107 108.343L240.107 106.83Z" fill="white" fill-opacity="0.08"/>
<path d="M240.107 114.129L165.054 114.129L165.054 115.642L240.107 115.642L240.107 114.129Z" fill="white" fill-opacity="0.08"/>
<path d="M240.107 121.435L165.054 121.435L165.054 122.948L240.107 122.948L240.107 121.435Z" fill="white" fill-opacity="0.08"/>
<path d="M240.107 128.733L165.054 128.733L165.054 130.246L240.107 130.246L240.107 128.733Z" fill="white" fill-opacity="0.08"/>
<path d="M407.558 56.417L406.228 56.417L406.228 131.059L407.558 131.059L407.558 56.417Z" fill="white" fill-opacity="0.08"/>
<path d="M419.689 56.417L418.356 56.417L418.356 131.059L419.689 131.059L419.689 56.417Z" fill="white" fill-opacity="0.08"/>
<path d="M431.821 56.417L430.488 56.417L430.488 131.059L431.821 131.059L431.821 56.417Z" fill="white" fill-opacity="0.08"/>
<path d="M443.95 56.417L442.617 56.417L442.617 131.059L443.95 131.059L443.95 56.417Z" fill="white" fill-opacity="0.08"/>
<path d="M456.082 56.417L454.749 56.417L454.749 131.059L456.082 131.059L456.082 56.417Z" fill="white" fill-opacity="0.08"/>
<path d="M468.211 56.417L466.878 56.417L466.878 131.059L468.211 131.059L468.211 56.417Z" fill="white" fill-opacity="0.08"/>
<path d="M480.346 56.417L479.013 56.417L479.013 131.059L480.346 131.059L480.346 56.417Z" fill="white" fill-opacity="0.08"/>
<path d="M568.029 56.418L566.699 56.418L566.699 131.06L568.029 131.06L568.029 56.418Z" fill="white" fill-opacity="0.08"/>
<path d="M580.161 56.418L578.828 56.418L578.828 131.06L580.161 131.06L580.161 56.418Z" fill="white" fill-opacity="0.08"/>
<path d="M592.292 56.418L590.959 56.418L590.959 131.06L592.292 131.06L592.292 56.418Z" fill="white" fill-opacity="0.08"/>
<path d="M604.421 56.418L603.088 56.418L603.088 131.06L604.421 131.06L604.421 56.418Z" fill="white" fill-opacity="0.08"/>
<path d="M616.553 56.418L615.22 56.418L615.22 131.06L616.553 131.06L616.553 56.418Z" fill="white" fill-opacity="0.08"/>
<path d="M628.682 56.418L627.349 56.418L627.349 131.06L628.682 131.06L628.682 56.418Z" fill="white" fill-opacity="0.08"/>
<path d="M640.817 56.418L639.484 56.418L639.484 131.06L640.817 131.06L640.817 56.418Z" fill="white" fill-opacity="0.08"/>
<path d="M400.579 55.9336L325.525 55.9336L325.525 57.2296L400.579 57.2296L400.579 55.9336Z" fill="white" fill-opacity="0.08"/>
<path d="M400.579 63.0186L325.525 63.0186L325.525 64.5316L400.579 64.5316L400.579 63.0186Z" fill="white" fill-opacity="0.08"/>
<path d="M400.579 70.3184L325.525 70.3184L325.525 71.8314L400.579 71.8314L400.579 70.3184Z" fill="white" fill-opacity="0.08"/>
<path d="M400.579 77.623L325.525 77.623L325.525 79.1361L400.579 79.1361L400.579 77.623Z" fill="white" fill-opacity="0.08"/>
<path d="M400.579 84.9229L325.525 84.9229L325.525 86.4359L400.579 86.4359L400.579 84.9229Z" fill="white" fill-opacity="0.08"/>
<path d="M400.579 92.2256L325.525 92.2256L325.525 93.7387L400.579 93.7387L400.579 92.2256Z" fill="white" fill-opacity="0.08"/>
<path d="M400.579 99.5303L325.525 99.5303L325.525 101.04L400.579 101.04L400.579 99.5303Z" fill="white" fill-opacity="0.08"/>
<path d="M400.579 106.83L325.525 106.83L325.525 108.343L400.579 108.343L400.579 106.83Z" fill="white" fill-opacity="0.08"/>
<path d="M400.579 114.129L325.525 114.129L325.525 115.642L400.579 115.642L400.579 114.129Z" fill="white" fill-opacity="0.08"/>
<path d="M400.579 121.435L325.525 121.435L325.525 122.948L400.579 122.948L400.579 121.435Z" fill="white" fill-opacity="0.08"/>
<path d="M400.579 128.733L325.525 128.733L325.525 130.246L400.579 130.246L400.579 128.733Z" fill="white" fill-opacity="0.08"/>
<path d="M561.05 55.9336L485.997 55.9336L485.997 57.2296L561.05 57.2296L561.05 55.9336Z" fill="white" fill-opacity="0.08"/>
<path d="M561.05 63.0186L485.997 63.0186L485.997 64.5316L561.05 64.5316L561.05 63.0186Z" fill="white" fill-opacity="0.08"/>
<path d="M561.05 70.3184L485.997 70.3184L485.997 71.8314L561.05 71.8314L561.05 70.3184Z" fill="white" fill-opacity="0.08"/>
<path d="M561.05 77.623L485.997 77.623L485.997 79.1361L561.05 79.1361L561.05 77.623Z" fill="white" fill-opacity="0.08"/>
<path d="M561.05 84.9229L485.997 84.9229L485.997 86.4359L561.05 86.4359L561.05 84.9229Z" fill="white" fill-opacity="0.08"/>
<path d="M561.05 92.2256L485.997 92.2256L485.997 93.7387L561.05 93.7387L561.05 92.2256Z" fill="white" fill-opacity="0.08"/>
<path d="M561.05 99.5303L485.997 99.5303L485.997 101.04L561.05 101.04L561.05 99.5303Z" fill="white" fill-opacity="0.08"/>
<path d="M561.05 106.83L485.997 106.83L485.997 108.343L561.05 108.343L561.05 106.83Z" fill="white" fill-opacity="0.08"/>
<path d="M561.05 114.129L485.997 114.129L485.997 115.642L561.05 115.642L561.05 114.129Z" fill="white" fill-opacity="0.08"/>
<path d="M561.05 121.435L485.997 121.435L485.997 122.948L561.05 122.948L561.05 121.435Z" fill="white" fill-opacity="0.08"/>
<path d="M561.05 128.733L485.997 128.733L485.997 130.246L561.05 130.246L561.05 128.733Z" fill="white" fill-opacity="0.08"/>
<path d="M728.503 56.418L727.173 56.418L727.173 131.06L728.503 131.06L728.503 56.418Z" fill="white" fill-opacity="0.08"/>
<path d="M740.635 56.418L739.302 56.418L739.302 131.06L740.635 131.06L740.635 56.418Z" fill="white" fill-opacity="0.08"/>
<path d="M752.767 56.418L751.434 56.418L751.434 131.06L752.767 131.06L752.767 56.418Z" fill="white" fill-opacity="0.08"/>
<path d="M764.895 56.418L763.562 56.418L763.562 131.06L764.895 131.06L764.895 56.418Z" fill="white" fill-opacity="0.08"/>
<path d="M777.027 56.418L775.694 56.418L775.694 131.06L777.027 131.06L777.027 56.418Z" fill="white" fill-opacity="0.08"/>
<path d="M789.156 56.418L787.823 56.418L787.823 131.06L789.156 131.06L789.156 56.418Z" fill="white" fill-opacity="0.08"/>
<path d="M801.291 56.418L799.958 56.418L799.958 131.06L801.291 131.06L801.291 56.418Z" fill="white" fill-opacity="0.08"/>
<path d="M721.521 55.9336L646.467 55.9336L646.467 57.2296L721.521 57.2296L721.521 55.9336Z" fill="white" fill-opacity="0.08"/>
<path d="M721.521 63.0186L646.467 63.0186L646.467 64.5316L721.521 64.5316L721.521 63.0186Z" fill="white" fill-opacity="0.08"/>
<path d="M721.521 70.3184L646.467 70.3184L646.467 71.8314L721.521 71.8314L721.521 70.3184Z" fill="white" fill-opacity="0.08"/>
<path d="M721.521 77.623L646.467 77.623L646.467 79.1361L721.521 79.1361L721.521 77.623Z" fill="white" fill-opacity="0.08"/>
<path d="M721.521 84.9229L646.467 84.9229L646.467 86.4359L721.521 86.4359L721.521 84.9229Z" fill="white" fill-opacity="0.08"/>
<path d="M721.521 92.2256L646.467 92.2256L646.467 93.7387L721.521 93.7387L721.521 92.2256Z" fill="white" fill-opacity="0.08"/>
<path d="M721.521 99.5303L646.467 99.5303L646.467 101.04L721.521 101.04L721.521 99.5303Z" fill="white" fill-opacity="0.08"/>
<path d="M721.521 106.83L646.467 106.83L646.467 108.343L721.521 108.343L721.521 106.83Z" fill="white" fill-opacity="0.08"/>
<path d="M721.521 114.129L646.467 114.129L646.467 115.642L721.521 115.642L721.521 114.129Z" fill="white" fill-opacity="0.08"/>
<path d="M721.521 121.435L646.467 121.435L646.467 122.948L721.521 122.948L721.521 121.435Z" fill="white" fill-opacity="0.08"/>
<path d="M721.521 128.733L646.467 128.733L646.467 130.246L721.521 130.246L721.521 128.733Z" fill="white" fill-opacity="0.08"/>
<path d="M888.737 56.418L887.407 56.418L887.407 131.06L888.737 131.06L888.737 56.418Z" fill="white" fill-opacity="0.08"/>
<path d="M900.869 56.418L899.536 56.418L899.536 131.06L900.869 131.06L900.869 56.418Z" fill="white" fill-opacity="0.08"/>
<path d="M913 56.418L911.667 56.418L911.667 131.06L913 131.06L913 56.418Z" fill="white" fill-opacity="0.08"/>
<path d="M925.129 56.418L923.796 56.418L923.796 131.06L925.129 131.06L925.129 56.418Z" fill="white" fill-opacity="0.08"/>
<path d="M937.261 56.418L935.928 56.418L935.928 131.06L937.261 131.06L937.261 56.418Z" fill="white" fill-opacity="0.08"/>
<path d="M949.39 56.418L948.057 56.418L948.057 131.06L949.39 131.06L949.39 56.418Z" fill="white" fill-opacity="0.08"/>
<path d="M961.525 56.418L960.192 56.418L960.192 131.06L961.525 131.06L961.525 56.418Z" fill="white" fill-opacity="0.08"/>
<path d="M881.995 55.9336L806.941 55.9336L806.941 57.2296L881.995 57.2296L881.995 55.9336Z" fill="white" fill-opacity="0.08"/>
<path d="M881.995 63.0186L806.941 63.0186L806.941 64.5316L881.995 64.5316L881.995 63.0186Z" fill="white" fill-opacity="0.08"/>
<path d="M881.995 70.3184L806.941 70.3184L806.941 71.8314L881.995 71.8314L881.995 70.3184Z" fill="white" fill-opacity="0.08"/>
<path d="M881.995 77.623L806.941 77.623L806.941 79.1361L881.995 79.1361L881.995 77.623Z" fill="white" fill-opacity="0.08"/>
<path d="M881.995 84.9229L806.941 84.9229L806.941 86.4359L881.995 86.4359L881.995 84.9229Z" fill="white" fill-opacity="0.08"/>
<path d="M881.995 92.2256L806.941 92.2256L806.941 93.7387L881.995 93.7387L881.995 92.2256Z" fill="white" fill-opacity="0.08"/>
<path d="M881.995 99.5303L806.941 99.5303L806.941 101.04L881.995 101.04L881.995 99.5303Z" fill="white" fill-opacity="0.08"/>
<path d="M881.995 106.83L806.941 106.83L806.941 108.343L881.995 108.343L881.995 106.83Z" fill="white" fill-opacity="0.08"/>
<path d="M881.995 114.129L806.941 114.129L806.941 115.642L881.995 115.642L881.995 114.129Z" fill="white" fill-opacity="0.08"/>
<path d="M881.995 121.435L806.941 121.435L806.941 122.948L881.995 122.948L881.995 121.435Z" fill="white" fill-opacity="0.08"/>
<path d="M881.995 128.733L806.941 128.733L806.941 130.246L881.995 130.246L881.995 128.733Z" fill="white" fill-opacity="0.08"/>
<path d="M1122.23 5.01953L1047.17 5.01953L1047.17 6.10175L1122.23 6.10175L1122.23 5.01953Z" fill="white" fill-opacity="0.08"/>
<path d="M1122.23 13.2461L1047.17 13.2461L1047.17 14.325L1122.23 14.325L1122.23 13.2461Z" fill="white" fill-opacity="0.08"/>
<path d="M1122.23 21.4629L1047.17 21.4629L1047.17 22.5451L1122.23 22.5451L1122.23 21.4629Z" fill="white" fill-opacity="0.08"/>
<path d="M1122.23 29.6865L1047.17 29.6865L1047.17 30.7654L1122.23 30.7654L1122.23 29.6865Z" fill="white" fill-opacity="0.08"/>
<path d="M1122.23 37.9092L1047.17 37.9092L1047.17 38.9914L1122.23 38.9914L1122.23 37.9092Z" fill="white" fill-opacity="0.08"/>
<path d="M1122.23 46.126L1047.17 46.126L1047.17 46.8036L1122.23 46.8036L1122.23 46.126Z" fill="white" fill-opacity="0.08"/>
<path d="M1057.07 -2.6582L1055.98 -2.6582L1055.98 5.56192L1057.07 5.56192L1057.07 -2.6582Z" fill="white" fill-opacity="0.08"/>
<path d="M1084.62 -2.6582L1083.54 -2.6582L1083.54 5.56192L1084.62 5.56192L1084.62 -2.6582Z" fill="white" fill-opacity="0.08"/>
<path d="M1112.18 -2.6582L1111.09 -2.6582L1111.09 5.56192L1112.18 5.56192L1112.18 -2.6582Z" fill="white" fill-opacity="0.08"/>
<path d="M1070.85 5.56152L1069.76 5.56152L1069.76 13.7816L1070.85 13.7816L1070.85 5.56152Z" fill="white" fill-opacity="0.08"/>
<path d="M1098.4 5.56152L1097.31 5.56152L1097.31 13.7816L1098.4 13.7816L1098.4 5.56152Z" fill="white" fill-opacity="0.08"/>
<path d="M1057.07 13.7822L1055.98 13.7822L1055.98 22.0023L1057.07 22.0023L1057.07 13.7822Z" fill="white" fill-opacity="0.08"/>
<path d="M1084.62 13.7822L1083.54 13.7822L1083.54 22.0023L1084.62 22.0023L1084.62 13.7822Z" fill="white" fill-opacity="0.08"/>
<path d="M1112.18 13.7822L1111.09 13.7822L1111.09 22.0023L1112.18 22.0023L1112.18 13.7822Z" fill="white" fill-opacity="0.08"/>
<path d="M1070.85 22.0059L1069.76 22.0059L1069.76 30.226L1070.85 30.226L1070.85 22.0059Z" fill="white" fill-opacity="0.08"/>
<path d="M1098.4 22.0059L1097.31 22.0059L1097.31 30.226L1098.4 30.226L1098.4 22.0059Z" fill="white" fill-opacity="0.08"/>
<path d="M1057.07 30.2256L1055.98 30.2256L1055.98 38.449L1057.07 38.449L1057.07 30.2256Z" fill="white" fill-opacity="0.08"/>
<path d="M1084.62 30.2256L1083.54 30.2256L1083.54 38.449L1084.62 38.449L1084.62 30.2256Z" fill="white" fill-opacity="0.08"/>
<path d="M1112.18 30.2256L1111.09 30.2256L1111.09 38.449L1112.18 38.449L1112.18 30.2256Z" fill="white" fill-opacity="0.08"/>
<path d="M1070.85 38.4492L1069.76 38.4492L1069.76 46.6693L1070.85 46.6693L1070.85 38.4492Z" fill="white" fill-opacity="0.08"/>
<path d="M1098.4 38.4492L1097.31 38.4492L1097.31 46.6693L1098.4 46.6693L1098.4 38.4492Z" fill="white" fill-opacity="0.08"/>
<path d="M1057.07 46.6689L1055.98 46.6689L1055.98 46.8038L1057.07 46.8038L1057.07 46.6689Z" fill="white" fill-opacity="0.08"/>
<path d="M1084.62 46.6689L1083.54 46.6689L1083.54 46.8038L1084.62 46.8038L1084.62 46.6689Z" fill="white" fill-opacity="0.08"/>
<path d="M1112.18 46.6689L1111.09 46.6689L1111.09 46.8038L1112.18 46.8038L1112.18 46.6689Z" fill="white" fill-opacity="0.08"/>
<path d="M1282.7 5.01953L1207.64 5.01953L1207.64 6.10175L1282.7 6.10175L1282.7 5.01953Z" fill="white" fill-opacity="0.08"/>
<path d="M1282.7 13.2461L1207.64 13.2461L1207.64 14.325L1282.7 14.325L1282.7 13.2461Z" fill="white" fill-opacity="0.08"/>
<path d="M1282.7 21.4629L1207.64 21.4629L1207.64 22.5451L1282.7 22.5451L1282.7 21.4629Z" fill="white" fill-opacity="0.08"/>
<path d="M1282.7 29.6865L1207.64 29.6865L1207.64 30.7654L1282.7 30.7654L1282.7 29.6865Z" fill="white" fill-opacity="0.08"/>
<path d="M1282.7 37.9092L1207.64 37.9092L1207.64 38.9914L1282.7 38.9914L1282.7 37.9092Z" fill="white" fill-opacity="0.08"/>
<path d="M1282.7 46.126L1207.64 46.126L1207.64 46.8036L1282.7 46.8036L1282.7 46.126Z" fill="white" fill-opacity="0.08"/>
<path d="M1217.54 -2.6582L1216.45 -2.6582L1216.45 5.56192L1217.54 5.56192L1217.54 -2.6582Z" fill="white" fill-opacity="0.08"/>
<path d="M1245.1 -2.6582L1244.01 -2.6582L1244.01 5.56192L1245.1 5.56192L1245.1 -2.6582Z" fill="white" fill-opacity="0.08"/>
<path d="M1272.65 -2.6582L1271.56 -2.6582L1271.56 5.56192L1272.65 5.56192L1272.65 -2.6582Z" fill="white" fill-opacity="0.08"/>
<path d="M1231.32 5.56152L1230.23 5.56152L1230.23 13.7816L1231.32 13.7816L1231.32 5.56152Z" fill="white" fill-opacity="0.08"/>
<path d="M1258.87 5.56152L1257.78 5.56152L1257.78 13.7816L1258.87 13.7816L1258.87 5.56152Z" fill="white" fill-opacity="0.08"/>
<path d="M1217.54 13.7822L1216.45 13.7822L1216.45 22.0023L1217.54 22.0023L1217.54 13.7822Z" fill="white" fill-opacity="0.08"/>
<path d="M1245.1 13.7822L1244.01 13.7822L1244.01 22.0023L1245.1 22.0023L1245.1 13.7822Z" fill="white" fill-opacity="0.08"/>
<path d="M1272.65 13.7822L1271.56 13.7822L1271.56 22.0023L1272.65 22.0023L1272.65 13.7822Z" fill="white" fill-opacity="0.08"/>
<path d="M1231.32 22.0059L1230.23 22.0059L1230.23 30.226L1231.32 30.226L1231.32 22.0059Z" fill="white" fill-opacity="0.08"/>
<path d="M1258.87 22.0059L1257.78 22.0059L1257.78 30.226L1258.87 30.226L1258.87 22.0059Z" fill="white" fill-opacity="0.08"/>
<path d="M1217.54 30.2256L1216.45 30.2256L1216.45 38.449L1217.54 38.449L1217.54 30.2256Z" fill="white" fill-opacity="0.08"/>
<path d="M1245.1 30.2256L1244.01 30.2256L1244.01 38.449L1245.1 38.449L1245.1 30.2256Z" fill="white" fill-opacity="0.08"/>
<path d="M1272.65 30.2256L1271.56 30.2256L1271.56 38.449L1272.65 38.449L1272.65 30.2256Z" fill="white" fill-opacity="0.08"/>
<path d="M1231.32 38.4492L1230.23 38.4492L1230.23 46.6693L1231.32 46.6693L1231.32 38.4492Z" fill="white" fill-opacity="0.08"/>
<path d="M1258.87 38.4492L1257.78 38.4492L1257.78 46.6693L1258.87 46.6693L1258.87 38.4492Z" fill="white" fill-opacity="0.08"/>
<path d="M1217.54 46.6689L1216.45 46.6689L1216.45 46.8038L1217.54 46.8038L1217.54 46.6689Z" fill="white" fill-opacity="0.08"/>
<path d="M1245.1 46.6689L1244.01 46.6689L1244.01 46.8038L1245.1 46.8038L1245.1 46.6689Z" fill="white" fill-opacity="0.08"/>
<path d="M1272.65 46.6689L1271.56 46.6689L1271.56 46.8038L1272.65 46.8038L1272.65 46.6689Z" fill="white" fill-opacity="0.08"/>
<path d="M1443.17 5.01953L1368.11 5.01953L1368.11 6.10175L1443.17 6.10175L1443.17 5.01953Z" fill="white" fill-opacity="0.08"/>
<path d="M1443.17 13.2461L1368.11 13.2461L1368.11 14.325L1443.17 14.325L1443.17 13.2461Z" fill="white" fill-opacity="0.08"/>
<path d="M1443.17 21.4629L1368.11 21.4629L1368.11 22.5451L1443.17 22.5451L1443.17 21.4629Z" fill="white" fill-opacity="0.08"/>
<path d="M1443.17 29.6865L1368.11 29.6865L1368.11 30.7654L1443.17 30.7654L1443.17 29.6865Z" fill="white" fill-opacity="0.08"/>
<path d="M1443.17 37.9092L1368.11 37.9092L1368.11 38.9914L1443.17 38.9914L1443.17 37.9092Z" fill="white" fill-opacity="0.08"/>
<path d="M1443.17 46.126L1368.11 46.126L1368.11 46.8036L1443.17 46.8036L1443.17 46.126Z" fill="white" fill-opacity="0.08"/>
<path d="M1378.01 -2.6582L1376.92 -2.6582L1376.92 5.56192L1378.01 5.56192L1378.01 -2.6582Z" fill="white" fill-opacity="0.08"/>
<path d="M1405.57 -2.6582L1404.48 -2.6582L1404.48 5.56192L1405.57 5.56192L1405.57 -2.6582Z" fill="white" fill-opacity="0.08"/>
<path d="M1433.12 -2.6582L1432.03 -2.6582L1432.03 5.56192L1433.12 5.56192L1433.12 -2.6582Z" fill="white" fill-opacity="0.08"/>
<path d="M1391.79 5.56152L1390.7 5.56152L1390.7 13.7816L1391.79 13.7816L1391.79 5.56152Z" fill="white" fill-opacity="0.08"/>
<path d="M1419.34 5.56152L1418.25 5.56152L1418.25 13.7816L1419.34 13.7816L1419.34 5.56152Z" fill="white" fill-opacity="0.08"/>
<path d="M1378.01 13.7822L1376.92 13.7822L1376.92 22.0023L1378.01 22.0023L1378.01 13.7822Z" fill="white" fill-opacity="0.08"/>
<path d="M1405.57 13.7822L1404.48 13.7822L1404.48 22.0023L1405.57 22.0023L1405.57 13.7822Z" fill="white" fill-opacity="0.08"/>
<path d="M1433.12 13.7822L1432.03 13.7822L1432.03 22.0023L1433.12 22.0023L1433.12 13.7822Z" fill="white" fill-opacity="0.08"/>
<path d="M1391.79 22.0059L1390.7 22.0059L1390.7 30.226L1391.79 30.226L1391.79 22.0059Z" fill="white" fill-opacity="0.08"/>
<path d="M1419.34 22.0059L1418.25 22.0059L1418.25 30.226L1419.34 30.226L1419.34 22.0059Z" fill="white" fill-opacity="0.08"/>
<path d="M1378.01 30.2256L1376.92 30.2256L1376.92 38.449L1378.01 38.449L1378.01 30.2256Z" fill="white" fill-opacity="0.08"/>
<path d="M1405.57 30.2256L1404.48 30.2256L1404.48 38.449L1405.57 38.449L1405.57 30.2256Z" fill="white" fill-opacity="0.08"/>
<path d="M1433.12 30.2256L1432.03 30.2256L1432.03 38.449L1433.12 38.449L1433.12 30.2256Z" fill="white" fill-opacity="0.08"/>
<path d="M1391.79 38.4492L1390.7 38.4492L1390.7 46.6693L1391.79 46.6693L1391.79 38.4492Z" fill="white" fill-opacity="0.08"/>
<path d="M1419.34 38.4492L1418.25 38.4492L1418.25 46.6693L1419.34 46.6693L1419.34 38.4492Z" fill="white" fill-opacity="0.08"/>
<path d="M1378.01 46.6689L1376.92 46.6689L1376.92 46.8038L1378.01 46.8038L1378.01 46.6689Z" fill="white" fill-opacity="0.08"/>
<path d="M1405.57 46.6689L1404.48 46.6689L1404.48 46.8038L1405.57 46.8038L1405.57 46.6689Z" fill="white" fill-opacity="0.08"/>
<path d="M1433.12 46.6689L1432.03 46.6689L1432.03 46.8038L1433.12 46.8038L1433.12 46.6689Z" fill="white" fill-opacity="0.08"/>
<path d="M995.492 -27.8359L966.938 0.557605L966.938 2.42945L997.371 -27.8359L995.492 -27.8359ZM1011.56 -27.8359L1041.99 2.42945L1041.99 0.557606L1013.44 -27.8359L1011.56 -27.8359Z" fill="white" fill-opacity="0.08"/>
<path d="M966.938 12.1059L966.938 13.9805L1004.47 -23.3434L1041.99 13.9805L1041.99 12.1059L1004.94 -24.7448L1004.47 -25.2119L966.938 12.1059Z" fill="white" fill-opacity="0.08"/>
<path d="M966.938 23.6544L966.938 25.5295L1004.47 -11.7917L1041.99 25.5295L1041.99 23.6544L1004.94 -13.1961L1004.47 -13.6631L966.938 23.6544Z" fill="white" fill-opacity="0.08"/>
<path d="M966.938 35.2065L966.938 37.0782L1004.47 -0.242912L1041.99 37.0782L1041.99 35.2065L1004.94 -1.64738L1004.47 -2.11133L966.938 35.2065Z" fill="white" fill-opacity="0.08"/>
<path d="M966.938 46.7553L966.938 46.8047L968.771 46.8047L1004.47 11.306L1040.16 46.8047L1041.99 46.8047L1041.99 46.7553L1004.94 9.90477L1004.47 9.4375L966.938 46.7553Z" fill="white" fill-opacity="0.08"/>
<path d="M978.501 46.805L980.383 46.805L1004.47 22.8551L1028.55 46.805L1030.43 46.805L1004.94 21.4506L1004.47 20.9834L978.501 46.805Z" fill="white" fill-opacity="0.08"/>
<path d="M990.115 46.8048L992 46.8048L1004.47 34.4073L1016.93 46.8048L1018.82 46.8048L1004.94 32.9995L1004.47 32.5322L990.115 46.8048Z" fill="white" fill-opacity="0.08"/>
<path d="M1001.73 46.8056L1003.61 46.8056L1004.47 45.9568L1005.32 46.8056L1007.2 46.8056L1004.94 44.5522L1004.47 44.085L1001.73 46.8056Z" fill="white" fill-opacity="0.08"/>
<path d="M1155.96 -27.8359L1127.41 0.557605L1127.41 2.42945L1157.84 -27.8359L1155.96 -27.8359ZM1172.03 -27.8359L1202.46 2.42945L1202.46 0.557606L1173.91 -27.8359L1172.03 -27.8359Z" fill="white" fill-opacity="0.08"/>
<path d="M1127.41 12.1069L1127.41 13.9815L1164.94 -23.3424L1202.46 13.9815L1202.46 12.1069L1165.4 -24.7438L1164.94 -25.2109L1127.41 12.1069Z" fill="white" fill-opacity="0.08"/>
<path d="M1127.41 23.6544L1127.41 25.5295L1164.94 -11.7917L1202.46 25.5295L1202.46 23.6544L1165.4 -13.1961L1164.94 -13.6631L1127.41 23.6544Z" fill="white" fill-opacity="0.08"/>
<path d="M1127.41 35.2065L1127.41 37.0782L1164.94 -0.242912L1202.46 37.0782L1202.46 35.2065L1165.4 -1.64738L1164.94 -2.11133L1127.41 35.2065Z" fill="white" fill-opacity="0.08"/>
<path d="M1127.41 46.7553L1127.41 46.8047L1129.24 46.8047L1164.94 11.306L1200.63 46.8047L1202.46 46.8047L1202.46 46.7553L1165.4 9.90477L1164.94 9.4375L1127.41 46.7553Z" fill="white" fill-opacity="0.08"/>
<path d="M1138.97 46.805L1140.85 46.805L1164.94 22.8551L1189.02 46.805L1190.9 46.805L1165.41 21.4506L1164.94 20.9834L1138.97 46.805Z" fill="white" fill-opacity="0.08"/>
<path d="M1150.58 46.8048L1152.47 46.8048L1164.94 34.4073L1177.4 46.8048L1179.29 46.8048L1165.41 32.9995L1164.94 32.5322L1150.58 46.8048Z" fill="white" fill-opacity="0.08"/>
<path d="M1162.2 46.8056L1164.08 46.8056L1164.94 45.9568L1165.79 46.8056L1167.67 46.8056L1165.41 44.5522L1164.94 44.085L1162.2 46.8056Z" fill="white" fill-opacity="0.08"/>
<path d="M1316.43 -27.8359L1287.88 0.557605L1287.88 2.42945L1318.31 -27.8359L1316.43 -27.8359ZM1332.5 -27.8359L1362.93 2.42945L1362.93 0.557606L1334.38 -27.8359L1332.5 -27.8359Z" fill="white" fill-opacity="0.08"/>
<path d="M1287.88 12.1069L1287.88 13.9815L1325.41 -23.3424L1362.93 13.9815L1362.93 12.1069L1325.88 -24.7438L1325.41 -25.2109L1287.88 12.1069Z" fill="white" fill-opacity="0.08"/>
<path d="M1287.88 23.6544L1287.88 25.5295L1325.41 -11.7917L1362.93 25.5295L1362.93 23.6544L1325.88 -13.1961L1325.41 -13.6631L1287.88 23.6544Z" fill="white" fill-opacity="0.08"/>
<path d="M1287.88 35.2065L1287.88 37.0782L1325.41 -0.242912L1362.93 37.0782L1362.93 35.2065L1325.88 -1.64738L1325.41 -2.11133L1287.88 35.2065Z" fill="white" fill-opacity="0.08"/>
<path d="M1287.88 46.7553L1287.88 46.8047L1289.71 46.8047L1325.41 11.306L1361.1 46.8047L1362.93 46.8047L1362.93 46.7553L1325.88 9.90477L1325.41 9.4375L1287.88 46.7553Z" fill="white" fill-opacity="0.08"/>
<path d="M1299.44 46.805L1301.32 46.805L1325.41 22.8551L1349.49 46.805L1351.37 46.805L1325.88 21.4506L1325.41 20.9834L1299.44 46.805Z" fill="white" fill-opacity="0.08"/>
<path d="M1311.06 46.8048L1312.94 46.8048L1325.41 34.4073L1337.87 46.8048L1339.76 46.8048L1325.88 32.9995L1325.41 32.5322L1311.06 46.8048Z" fill="white" fill-opacity="0.08"/>
<path d="M1322.67 46.8056L1324.55 46.8056L1325.41 45.9568L1326.26 46.8056L1328.14 46.8056L1325.88 44.5522L1325.41 44.085L1322.67 46.8056Z" fill="white" fill-opacity="0.08"/>
<path d="M1603.64 5.01953L1528.59 5.01953L1528.59 6.10175L1603.64 6.10175L1603.64 5.01953Z" fill="white" fill-opacity="0.08"/>
<path d="M1603.64 13.2461L1528.59 13.2461L1528.59 14.325L1603.64 14.325L1603.64 13.2461Z" fill="white" fill-opacity="0.08"/>
<path d="M1603.64 21.4629L1528.59 21.4629L1528.59 22.5451L1603.64 22.5451L1603.64 21.4629Z" fill="white" fill-opacity="0.08"/>
<path d="M1603.64 29.6865L1528.59 29.6865L1528.59 30.7654L1603.64 30.7654L1603.64 29.6865Z" fill="white" fill-opacity="0.08"/>
<path d="M1603.64 37.9092L1528.59 37.9092L1528.59 38.9914L1603.64 38.9914L1603.64 37.9092Z" fill="white" fill-opacity="0.08"/>
<path d="M1603.64 46.126L1528.59 46.126L1528.59 46.8036L1603.64 46.8036L1603.64 46.126Z" fill="white" fill-opacity="0.08"/>
<path d="M1538.48 -2.6582L1537.39 -2.6582L1537.39 5.56192L1538.48 5.56192L1538.48 -2.6582Z" fill="white" fill-opacity="0.08"/>
<path d="M1566.04 -2.6582L1564.95 -2.6582L1564.95 5.56192L1566.04 5.56192L1566.04 -2.6582Z" fill="white" fill-opacity="0.08"/>
<path d="M1593.59 -2.6582L1592.5 -2.6582L1592.5 5.56192L1593.59 5.56192L1593.59 -2.6582Z" fill="white" fill-opacity="0.08"/>
<path d="M1552.26 5.56152L1551.17 5.56152L1551.17 13.7816L1552.26 13.7816L1552.26 5.56152Z" fill="white" fill-opacity="0.08"/>
<path d="M1579.81 5.56152L1578.72 5.56152L1578.72 13.7816L1579.81 13.7816L1579.81 5.56152Z" fill="white" fill-opacity="0.08"/>
<path d="M1538.48 13.7822L1537.39 13.7822L1537.39 22.0023L1538.48 22.0023L1538.48 13.7822Z" fill="white" fill-opacity="0.08"/>
<path d="M1566.04 13.7822L1564.95 13.7822L1564.95 22.0023L1566.04 22.0023L1566.04 13.7822Z" fill="white" fill-opacity="0.08"/>
<path d="M1593.59 13.7822L1592.5 13.7822L1592.5 22.0023L1593.59 22.0023L1593.59 13.7822Z" fill="white" fill-opacity="0.08"/>
<path d="M1552.26 22.0059L1551.17 22.0059L1551.17 30.226L1552.26 30.226L1552.26 22.0059Z" fill="white" fill-opacity="0.08"/>
<path d="M1579.81 22.0059L1578.72 22.0059L1578.72 30.226L1579.81 30.226L1579.81 22.0059Z" fill="white" fill-opacity="0.08"/>
<path d="M1538.48 30.2256L1537.39 30.2256L1537.39 38.449L1538.48 38.449L1538.48 30.2256Z" fill="white" fill-opacity="0.08"/>
<path d="M1566.04 30.2256L1564.95 30.2256L1564.95 38.449L1566.04 38.449L1566.04 30.2256Z" fill="white" fill-opacity="0.08"/>
<path d="M1593.59 30.2256L1592.5 30.2256L1592.5 38.449L1593.59 38.449L1593.59 30.2256Z" fill="white" fill-opacity="0.08"/>
<path d="M1552.26 38.4492L1551.17 38.4492L1551.17 46.6693L1552.26 46.6693L1552.26 38.4492Z" fill="white" fill-opacity="0.08"/>
<path d="M1579.81 38.4492L1578.72 38.4492L1578.72 46.6693L1579.81 46.6693L1579.81 38.4492Z" fill="white" fill-opacity="0.08"/>
<path d="M1538.48 46.6689L1537.39 46.6689L1537.39 46.8038L1538.48 46.8038L1538.48 46.6689Z" fill="white" fill-opacity="0.08"/>
<path d="M1566.04 46.6689L1564.95 46.6689L1564.95 46.8038L1566.04 46.8038L1566.04 46.6689Z" fill="white" fill-opacity="0.08"/>
<path d="M1593.59 46.6689L1592.5 46.6689L1592.5 46.8038L1593.59 46.8038L1593.59 46.6689Z" fill="white" fill-opacity="0.08"/>
<path d="M1764.11 5.01953L1689.06 5.01953L1689.06 6.10175L1764.11 6.10175L1764.11 5.01953Z" fill="white" fill-opacity="0.08"/>
<path d="M1764.11 13.2461L1689.06 13.2461L1689.06 14.325L1764.11 14.325L1764.11 13.2461Z" fill="white" fill-opacity="0.08"/>
<path d="M1764.11 21.4629L1689.06 21.4629L1689.06 22.5451L1764.11 22.5451L1764.11 21.4629Z" fill="white" fill-opacity="0.08"/>
<path d="M1764.11 29.6865L1689.06 29.6865L1689.06 30.7654L1764.11 30.7654L1764.11 29.6865Z" fill="white" fill-opacity="0.08"/>
<path d="M1764.11 37.9092L1689.06 37.9092L1689.06 38.9914L1764.11 38.9914L1764.11 37.9092Z" fill="white" fill-opacity="0.08"/>
<path d="M1764.11 46.126L1689.06 46.126L1689.06 46.8036L1764.11 46.8036L1764.11 46.126Z" fill="white" fill-opacity="0.08"/>
<path d="M1698.95 -2.6582L1697.87 -2.6582L1697.87 5.56192L1698.95 5.56192L1698.95 -2.6582Z" fill="white" fill-opacity="0.08"/>
<path d="M1726.51 -2.6582L1725.42 -2.6582L1725.42 5.56192L1726.51 5.56192L1726.51 -2.6582Z" fill="white" fill-opacity="0.08"/>
<path d="M1754.06 -2.6582L1752.97 -2.6582L1752.97 5.56192L1754.06 5.56192L1754.06 -2.6582Z" fill="white" fill-opacity="0.08"/>
<path d="M1712.73 5.56152L1711.64 5.56152L1711.64 13.7816L1712.73 13.7816L1712.73 5.56152Z" fill="white" fill-opacity="0.08"/>
<path d="M1740.28 5.56152L1739.2 5.56152L1739.2 13.7816L1740.28 13.7816L1740.28 5.56152Z" fill="white" fill-opacity="0.08"/>
<path d="M1698.95 13.7822L1697.87 13.7822L1697.87 22.0023L1698.95 22.0023L1698.95 13.7822Z" fill="white" fill-opacity="0.08"/>
<path d="M1726.51 13.7822L1725.42 13.7822L1725.42 22.0023L1726.51 22.0023L1726.51 13.7822Z" fill="white" fill-opacity="0.08"/>
<path d="M1754.06 13.7822L1752.97 13.7822L1752.97 22.0023L1754.06 22.0023L1754.06 13.7822Z" fill="white" fill-opacity="0.08"/>
<path d="M1712.73 22.0059L1711.64 22.0059L1711.64 30.226L1712.73 30.226L1712.73 22.0059Z" fill="white" fill-opacity="0.08"/>
<path d="M1740.28 22.0059L1739.2 22.0059L1739.2 30.226L1740.28 30.226L1740.28 22.0059Z" fill="white" fill-opacity="0.08"/>
<path d="M1698.95 30.2256L1697.87 30.2256L1697.87 38.449L1698.95 38.449L1698.95 30.2256Z" fill="white" fill-opacity="0.08"/>
<path d="M1726.51 30.2256L1725.42 30.2256L1725.42 38.449L1726.51 38.449L1726.51 30.2256Z" fill="white" fill-opacity="0.08"/>
<path d="M1754.06 30.2256L1752.97 30.2256L1752.97 38.449L1754.06 38.449L1754.06 30.2256Z" fill="white" fill-opacity="0.08"/>
<path d="M1712.73 38.4492L1711.64 38.4492L1711.64 46.6693L1712.73 46.6693L1712.73 38.4492Z" fill="white" fill-opacity="0.08"/>
<path d="M1740.28 38.4492L1739.2 38.4492L1739.2 46.6693L1740.28 46.6693L1740.28 38.4492Z" fill="white" fill-opacity="0.08"/>
<path d="M1698.95 46.6689L1697.87 46.6689L1697.87 46.8038L1698.95 46.8038L1698.95 46.6689Z" fill="white" fill-opacity="0.08"/>
<path d="M1726.51 46.6689L1725.42 46.6689L1725.42 46.8038L1726.51 46.8038L1726.51 46.6689Z" fill="white" fill-opacity="0.08"/>
<path d="M1754.06 46.6689L1752.97 46.6689L1752.97 46.8038L1754.06 46.8038L1754.06 46.6689Z" fill="white" fill-opacity="0.08"/>
<path d="M1924.58 5.01953L1849.53 5.01953L1849.53 6.10175L1924.58 6.10175L1924.58 5.01953Z" fill="white" fill-opacity="0.08"/>
<path d="M1924.58 13.2461L1849.53 13.2461L1849.53 14.325L1924.58 14.325L1924.58 13.2461Z" fill="white" fill-opacity="0.08"/>
<path d="M1924.58 21.4629L1849.53 21.4629L1849.53 22.5451L1924.58 22.5451L1924.58 21.4629Z" fill="white" fill-opacity="0.08"/>
<path d="M1924.58 29.6865L1849.53 29.6865L1849.53 30.7654L1924.58 30.7654L1924.58 29.6865Z" fill="white" fill-opacity="0.08"/>
<path d="M1924.58 37.9092L1849.53 37.9092L1849.53 38.9914L1924.58 38.9914L1924.58 37.9092Z" fill="white" fill-opacity="0.08"/>
<path d="M1924.58 46.126L1849.53 46.126L1849.53 46.8036L1924.58 46.8036L1924.58 46.126Z" fill="white" fill-opacity="0.08"/>
<path d="M1859.43 -2.6582L1858.34 -2.6582L1858.34 5.56192L1859.43 5.56192L1859.43 -2.6582Z" fill="white" fill-opacity="0.08"/>
<path d="M1886.98 -2.6582L1885.89 -2.6582L1885.89 5.56192L1886.98 5.56192L1886.98 -2.6582Z" fill="white" fill-opacity="0.08"/>
<path d="M1914.53 -2.6582L1913.44 -2.6582L1913.44 5.56192L1914.53 5.56192L1914.53 -2.6582Z" fill="white" fill-opacity="0.08"/>
<path d="M1873.2 5.56152L1872.12 5.56152L1872.12 13.7816L1873.2 13.7816L1873.2 5.56152Z" fill="white" fill-opacity="0.08"/>
<path d="M1900.76 5.56152L1899.67 5.56152L1899.67 13.7816L1900.76 13.7816L1900.76 5.56152Z" fill="white" fill-opacity="0.08"/>
<path d="M1859.43 13.7822L1858.34 13.7822L1858.34 22.0023L1859.43 22.0023L1859.43 13.7822Z" fill="white" fill-opacity="0.08"/>
<path d="M1886.98 13.7822L1885.89 13.7822L1885.89 22.0023L1886.98 22.0023L1886.98 13.7822Z" fill="white" fill-opacity="0.08"/>
<path d="M1914.53 13.7822L1913.44 13.7822L1913.44 22.0023L1914.53 22.0023L1914.53 13.7822Z" fill="white" fill-opacity="0.08"/>
<path d="M1873.2 22.0059L1872.12 22.0059L1872.12 30.226L1873.2 30.226L1873.2 22.0059Z" fill="white" fill-opacity="0.08"/>
<path d="M1900.76 22.0059L1899.67 22.0059L1899.67 30.226L1900.76 30.226L1900.76 22.0059Z" fill="white" fill-opacity="0.08"/>
<path d="M1859.43 30.2256L1858.34 30.2256L1858.34 38.449L1859.43 38.449L1859.43 30.2256Z" fill="white" fill-opacity="0.08"/>
<path d="M1886.98 30.2256L1885.89 30.2256L1885.89 38.449L1886.98 38.449L1886.98 30.2256Z" fill="white" fill-opacity="0.08"/>
<path d="M1914.53 30.2256L1913.44 30.2256L1913.44 38.449L1914.53 38.449L1914.53 30.2256Z" fill="white" fill-opacity="0.08"/>
<path d="M1873.2 38.4492L1872.12 38.4492L1872.12 46.6693L1873.2 46.6693L1873.2 38.4492Z" fill="white" fill-opacity="0.08"/>
<path d="M1900.76 38.4492L1899.67 38.4492L1899.67 46.6693L1900.76 46.6693L1900.76 38.4492Z" fill="white" fill-opacity="0.08"/>
<path d="M1859.43 46.6689L1858.34 46.6689L1858.34 46.8038L1859.43 46.8038L1859.43 46.6689Z" fill="white" fill-opacity="0.08"/>
<path d="M1886.98 46.6689L1885.89 46.6689L1885.89 46.8038L1886.98 46.8038L1886.98 46.6689Z" fill="white" fill-opacity="0.08"/>
<path d="M1914.53 46.6689L1913.44 46.6689L1913.44 46.8038L1914.53 46.8038L1914.53 46.6689Z" fill="white" fill-opacity="0.08"/>
<path d="M1476.91 -27.8359L1448.35 0.557605L1448.35 2.42945L1478.78 -27.8359L1476.91 -27.8359ZM1492.97 -27.8359L1523.41 2.42945L1523.41 0.557606L1494.86 -27.8359L1492.97 -27.8359Z" fill="white" fill-opacity="0.08"/>
<path d="M1448.35 12.1069L1448.35 13.9815L1485.88 -23.3424L1523.41 13.9815L1523.41 12.1069L1486.35 -24.7438L1485.88 -25.2109L1448.35 12.1069Z" fill="white" fill-opacity="0.08"/>
<path d="M1448.35 23.6544L1448.35 25.5295L1485.88 -11.7917L1523.41 25.5295L1523.41 23.6544L1486.35 -13.1961L1485.88 -13.6631L1448.35 23.6544Z" fill="white" fill-opacity="0.08"/>
<path d="M1448.35 35.2065L1448.35 37.0782L1485.88 -0.242912L1523.41 37.0782L1523.41 35.2065L1486.35 -1.64738L1485.88 -2.11133L1448.35 35.2065Z" fill="white" fill-opacity="0.08"/>
<path d="M1448.35 46.7553L1448.35 46.8047L1450.18 46.8047L1485.88 11.306L1521.57 46.8047L1523.41 46.8047L1523.41 46.7553L1486.35 9.90477L1485.88 9.4375L1448.35 46.7553Z" fill="white" fill-opacity="0.08"/>
<path d="M1459.92 46.805L1461.8 46.805L1485.88 22.8551L1509.96 46.805L1511.84 46.805L1486.35 21.4506L1485.88 20.9834L1459.92 46.805Z" fill="white" fill-opacity="0.08"/>
<path d="M1471.53 46.8048L1473.41 46.8048L1485.88 34.4073L1498.35 46.8048L1500.23 46.8048L1486.35 32.9995L1485.88 32.5322L1471.53 46.8048Z" fill="white" fill-opacity="0.08"/>
<path d="M1483.14 46.8056L1485.03 46.8056L1485.88 45.9568L1486.73 46.8056L1488.61 46.8056L1486.35 44.5522L1485.88 44.085L1483.14 46.8056Z" fill="white" fill-opacity="0.08"/>
<path d="M1637.37 -27.8359L1608.82 0.557605L1608.82 2.42945L1639.25 -27.8359L1637.37 -27.8359ZM1653.44 -27.8359L1683.88 2.42945L1683.88 0.557606L1655.32 -27.8359L1653.44 -27.8359Z" fill="white" fill-opacity="0.08"/>
<path d="M1608.82 12.1059L1608.82 13.9805L1646.35 -23.3434L1683.87 13.9805L1683.87 12.1059L1646.82 -24.7448L1646.35 -25.2119L1608.82 12.1059Z" fill="white" fill-opacity="0.08"/>
<path d="M1608.82 23.6544L1608.82 25.5295L1646.35 -11.7917L1683.87 25.5295L1683.87 23.6544L1646.82 -13.1961L1646.35 -13.6631L1608.82 23.6544Z" fill="white" fill-opacity="0.08"/>
<path d="M1608.82 35.2065L1608.82 37.0782L1646.35 -0.242912L1683.87 37.0782L1683.87 35.2065L1646.82 -1.64738L1646.35 -2.11133L1608.82 35.2065Z" fill="white" fill-opacity="0.08"/>
<path d="M1608.82 46.7553L1608.82 46.8047L1610.65 46.8047L1646.35 11.306L1682.04 46.8047L1683.87 46.8047L1683.87 46.7553L1646.82 9.90477L1646.35 9.4375L1608.82 46.7553Z" fill="white" fill-opacity="0.08"/>
<path d="M1620.38 46.805L1622.27 46.805L1646.35 22.8551L1670.43 46.805L1672.31 46.805L1646.82 21.4506L1646.35 20.9834L1620.38 46.805Z" fill="white" fill-opacity="0.08"/>
<path d="M1632 46.8048L1633.88 46.8048L1646.35 34.4073L1658.81 46.8048L1660.7 46.8048L1646.82 32.9995L1646.35 32.5322L1632 46.8048Z" fill="white" fill-opacity="0.08"/>
<path d="M1643.61 46.8056L1645.49 46.8056L1646.35 45.9568L1647.2 46.8056L1649.08 46.8056L1646.82 44.5522L1646.35 44.085L1643.61 46.8056Z" fill="white" fill-opacity="0.08"/>
<path d="M1797.85 -27.8359L1769.29 0.557605L1769.29 2.42945L1799.72 -27.8359L1797.85 -27.8359ZM1813.91 -27.8359L1844.35 2.42945L1844.35 0.557606L1815.8 -27.8359L1813.91 -27.8359Z" fill="white" fill-opacity="0.08"/>
<path d="M1769.29 12.1069L1769.29 13.9815L1806.82 -23.3424L1844.35 13.9815L1844.35 12.1069L1807.29 -24.7438L1806.82 -25.2109L1769.29 12.1069Z" fill="white" fill-opacity="0.08"/>
<path d="M1769.29 23.6544L1769.29 25.5295L1806.82 -11.7917L1844.35 25.5295L1844.35 23.6544L1807.29 -13.1961L1806.82 -13.6631L1769.29 23.6544Z" fill="white" fill-opacity="0.08"/>
<path d="M1769.29 35.2065L1769.29 37.0782L1806.82 -0.242912L1844.35 37.0782L1844.35 35.2065L1807.29 -1.64738L1806.82 -2.11133L1769.29 35.2065Z" fill="white" fill-opacity="0.08"/>
<path d="M1769.29 46.7553L1769.29 46.8047L1771.12 46.8047L1806.82 11.306L1842.51 46.8047L1844.35 46.8047L1844.35 46.7553L1807.29 9.90477L1806.82 9.4375L1769.29 46.7553Z" fill="white" fill-opacity="0.08"/>
<path d="M1780.86 46.805L1782.74 46.805L1806.82 22.8551L1830.9 46.805L1832.78 46.805L1807.29 21.4506L1806.82 20.9834L1780.86 46.805Z" fill="white" fill-opacity="0.08"/>
<path d="M1792.47 46.8048L1794.35 46.8048L1806.82 34.4073L1819.29 46.8048L1821.17 46.8048L1807.29 32.9995L1806.82 32.5322L1792.47 46.8048Z" fill="white" fill-opacity="0.08"/>
<path d="M1804.08 46.8056L1805.97 46.8056L1806.82 45.9568L1807.67 46.8056L1809.56 46.8056L1807.29 44.5522L1806.82 44.085L1804.08 46.8056Z" fill="white" fill-opacity="0.08"/>
<path d="M1048.97 56.418L1047.64 56.418L1047.64 131.06L1048.97 131.06L1048.97 56.418Z" fill="white" fill-opacity="0.08"/>
<path d="M1061.1 56.418L1059.77 56.418L1059.77 131.06L1061.1 131.06L1061.1 56.418Z" fill="white" fill-opacity="0.08"/>
<path d="M1073.24 56.418L1071.9 56.418L1071.9 131.06L1073.24 131.06L1073.24 56.418Z" fill="white" fill-opacity="0.08"/>
<path d="M1085.36 56.418L1084.03 56.418L1084.03 131.06L1085.36 131.06L1085.36 56.418Z" fill="white" fill-opacity="0.08"/>
<path d="M1097.5 56.418L1096.16 56.418L1096.16 131.06L1097.5 131.06L1097.5 56.418Z" fill="white" fill-opacity="0.08"/>
<path d="M1109.62 56.418L1108.29 56.418L1108.29 131.06L1109.62 131.06L1109.62 56.418Z" fill="white" fill-opacity="0.08"/>
<path d="M1121.76 56.418L1120.43 56.418L1120.43 131.06L1121.76 131.06L1121.76 56.418Z" fill="white" fill-opacity="0.08"/>
<path d="M1209.44 56.418L1208.11 56.418L1208.11 131.06L1209.44 131.06L1209.44 56.418Z" fill="white" fill-opacity="0.08"/>
<path d="M1221.58 56.418L1220.24 56.418L1220.24 131.06L1221.58 131.06L1221.58 56.418Z" fill="white" fill-opacity="0.08"/>
<path d="M1233.71 56.418L1232.37 56.418L1232.37 131.06L1233.71 131.06L1233.71 56.418Z" fill="white" fill-opacity="0.08"/>
<path d="M1245.84 56.418L1244.5 56.418L1244.5 131.06L1245.84 131.06L1245.84 56.418Z" fill="white" fill-opacity="0.08"/>
<path d="M1257.97 56.418L1256.63 56.418L1256.63 131.06L1257.97 131.06L1257.97 56.418Z" fill="white" fill-opacity="0.08"/>
<path d="M1270.1 56.418L1268.76 56.418L1268.76 131.06L1270.1 131.06L1270.1 56.418Z" fill="white" fill-opacity="0.08"/>
<path d="M1282.23 56.418L1280.9 56.418L1280.9 131.06L1282.23 131.06L1282.23 56.418Z" fill="white" fill-opacity="0.08"/>
<path d="M1041.99 55.9336L966.938 55.9336L966.937 57.2296L1041.99 57.2296L1041.99 55.9336Z" fill="white" fill-opacity="0.08"/>
<path d="M1041.99 63.0186L966.938 63.0186L966.937 64.5316L1041.99 64.5316L1041.99 63.0186Z" fill="white" fill-opacity="0.08"/>
<path d="M1041.99 70.3184L966.938 70.3184L966.937 71.8314L1041.99 71.8314L1041.99 70.3184Z" fill="white" fill-opacity="0.08"/>
<path d="M1041.99 77.623L966.938 77.623L966.937 79.1361L1041.99 79.1361L1041.99 77.623Z" fill="white" fill-opacity="0.08"/>
<path d="M1041.99 84.9229L966.938 84.9229L966.937 86.4359L1041.99 86.4359L1041.99 84.9229Z" fill="white" fill-opacity="0.08"/>
<path d="M1041.99 92.2256L966.938 92.2256L966.937 93.7387L1041.99 93.7387L1041.99 92.2256Z" fill="white" fill-opacity="0.08"/>
<path d="M1041.99 99.5303L966.938 99.5303L966.937 101.04L1041.99 101.04L1041.99 99.5303Z" fill="white" fill-opacity="0.08"/>
<path d="M1041.99 106.83L966.938 106.83L966.937 108.343L1041.99 108.343L1041.99 106.83Z" fill="white" fill-opacity="0.08"/>
<path d="M1041.99 114.129L966.938 114.129L966.937 115.642L1041.99 115.642L1041.99 114.129Z" fill="white" fill-opacity="0.08"/>
<path d="M1041.99 121.435L966.938 121.435L966.937 122.948L1041.99 122.948L1041.99 121.435Z" fill="white" fill-opacity="0.08"/>
<path d="M1041.99 128.733L966.938 128.733L966.937 130.246L1041.99 130.246L1041.99 128.733Z" fill="white" fill-opacity="0.08"/>
<path d="M1202.46 55.9336L1127.41 55.9336L1127.41 57.2296L1202.46 57.2296L1202.46 55.9336Z" fill="white" fill-opacity="0.08"/>
<path d="M1202.46 63.0186L1127.41 63.0186L1127.41 64.5316L1202.46 64.5316L1202.46 63.0186Z" fill="white" fill-opacity="0.08"/>
<path d="M1202.46 70.3184L1127.41 70.3184L1127.41 71.8314L1202.46 71.8314L1202.46 70.3184Z" fill="white" fill-opacity="0.08"/>
<path d="M1202.46 77.623L1127.41 77.623L1127.41 79.1361L1202.46 79.1361L1202.46 77.623Z" fill="white" fill-opacity="0.08"/>
<path d="M1202.46 84.9229L1127.41 84.9229L1127.41 86.4359L1202.46 86.4359L1202.46 84.9229Z" fill="white" fill-opacity="0.08"/>
<path d="M1202.46 92.2256L1127.41 92.2256L1127.41 93.7387L1202.46 93.7387L1202.46 92.2256Z" fill="white" fill-opacity="0.08"/>
<path d="M1202.46 99.5303L1127.41 99.5303L1127.41 101.04L1202.46 101.04L1202.46 99.5303Z" fill="white" fill-opacity="0.08"/>
<path d="M1202.46 106.83L1127.41 106.83L1127.41 108.343L1202.46 108.343L1202.46 106.83Z" fill="white" fill-opacity="0.08"/>
<path d="M1202.46 114.129L1127.41 114.129L1127.41 115.642L1202.46 115.642L1202.46 114.129Z" fill="white" fill-opacity="0.08"/>
<path d="M1202.46 121.435L1127.41 121.435L1127.41 122.948L1202.46 122.948L1202.46 121.435Z" fill="white" fill-opacity="0.08"/>
<path d="M1202.46 128.733L1127.41 128.733L1127.41 130.246L1202.46 130.246L1202.46 128.733Z" fill="white" fill-opacity="0.08"/>
<path d="M1369.91 56.418L1368.58 56.418L1368.58 131.06L1369.91 131.06L1369.91 56.418Z" fill="white" fill-opacity="0.08"/>
<path d="M1382.05 56.418L1380.71 56.418L1380.71 131.06L1382.05 131.06L1382.05 56.418Z" fill="white" fill-opacity="0.08"/>
<path d="M1394.18 56.418L1392.85 56.418L1392.85 131.06L1394.18 131.06L1394.18 56.418Z" fill="white" fill-opacity="0.08"/>
<path d="M1406.31 56.418L1404.97 56.418L1404.97 131.06L1406.31 131.06L1406.31 56.418Z" fill="white" fill-opacity="0.08"/>
<path d="M1418.44 56.418L1417.11 56.418L1417.11 131.06L1418.44 131.06L1418.44 56.418Z" fill="white" fill-opacity="0.08"/>
<path d="M1430.57 56.418L1429.23 56.418L1429.23 131.06L1430.57 131.06L1430.57 56.418Z" fill="white" fill-opacity="0.08"/>
<path d="M1442.7 56.418L1441.37 56.418L1441.37 131.06L1442.7 131.06L1442.7 56.418Z" fill="white" fill-opacity="0.08"/>
<path d="M1530.39 56.418L1529.06 56.418L1529.06 131.06L1530.39 131.06L1530.39 56.418Z" fill="white" fill-opacity="0.08"/>
<path d="M1542.52 56.418L1541.18 56.418L1541.18 131.06L1542.52 131.06L1542.52 56.418Z" fill="white" fill-opacity="0.08"/>
<path d="M1554.65 56.418L1553.32 56.418L1553.32 131.06L1554.65 131.06L1554.65 56.418Z" fill="white" fill-opacity="0.08"/>
<path d="M1566.78 56.418L1565.45 56.418L1565.45 131.06L1566.78 131.06L1566.78 56.418Z" fill="white" fill-opacity="0.08"/>
<path d="M1578.91 56.418L1577.58 56.418L1577.58 131.06L1578.91 131.06L1578.91 56.418Z" fill="white" fill-opacity="0.08"/>
<path d="M1591.04 56.418L1589.71 56.418L1589.71 131.06L1591.04 131.06L1591.04 56.418Z" fill="white" fill-opacity="0.08"/>
<path d="M1603.17 56.418L1601.84 56.418L1601.84 131.06L1603.17 131.06L1603.17 56.418Z" fill="white" fill-opacity="0.08"/>
<path d="M1362.94 55.9336L1287.88 55.9336L1287.88 57.2296L1362.94 57.2296L1362.94 55.9336Z" fill="white" fill-opacity="0.08"/>
<path d="M1362.94 63.0186L1287.88 63.0186L1287.88 64.5316L1362.94 64.5316L1362.94 63.0186Z" fill="white" fill-opacity="0.08"/>
<path d="M1362.94 70.3184L1287.88 70.3184L1287.88 71.8314L1362.94 71.8314L1362.94 70.3184Z" fill="white" fill-opacity="0.08"/>
<path d="M1362.94 77.623L1287.88 77.623L1287.88 79.1361L1362.94 79.1361L1362.94 77.623Z" fill="white" fill-opacity="0.08"/>
<path d="M1362.94 84.9229L1287.88 84.9229L1287.88 86.4359L1362.94 86.4359L1362.94 84.9229Z" fill="white" fill-opacity="0.08"/>
<path d="M1362.94 92.2256L1287.88 92.2256L1287.88 93.7387L1362.94 93.7387L1362.94 92.2256Z" fill="white" fill-opacity="0.08"/>
<path d="M1362.94 99.5303L1287.88 99.5303L1287.88 101.04L1362.94 101.04L1362.94 99.5303Z" fill="white" fill-opacity="0.08"/>
<path d="M1362.94 106.83L1287.88 106.83L1287.88 108.343L1362.94 108.343L1362.94 106.83Z" fill="white" fill-opacity="0.08"/>
<path d="M1362.94 114.129L1287.88 114.129L1287.88 115.642L1362.94 115.642L1362.94 114.129Z" fill="white" fill-opacity="0.08"/>
<path d="M1362.94 121.435L1287.88 121.435L1287.88 122.948L1362.94 122.948L1362.94 121.435Z" fill="white" fill-opacity="0.08"/>
<path d="M1362.94 128.733L1287.88 128.733L1287.88 130.246L1362.94 130.246L1362.94 128.733Z" fill="white" fill-opacity="0.08"/>
<path d="M1523.41 55.9336L1448.35 55.9336L1448.35 57.2296L1523.41 57.2296L1523.41 55.9336Z" fill="white" fill-opacity="0.08"/>
<path d="M1523.41 63.0186L1448.35 63.0186L1448.35 64.5316L1523.41 64.5316L1523.41 63.0186Z" fill="white" fill-opacity="0.08"/>
<path d="M1523.41 70.3184L1448.35 70.3184L1448.35 71.8314L1523.41 71.8314L1523.41 70.3184Z" fill="white" fill-opacity="0.08"/>
<path d="M1523.41 77.623L1448.35 77.623L1448.35 79.1361L1523.41 79.1361L1523.41 77.623Z" fill="white" fill-opacity="0.08"/>
<path d="M1523.41 84.9229L1448.35 84.9229L1448.35 86.4359L1523.41 86.4359L1523.41 84.9229Z" fill="white" fill-opacity="0.08"/>
<path d="M1523.41 92.2256L1448.35 92.2256L1448.35 93.7387L1523.41 93.7387L1523.41 92.2256Z" fill="white" fill-opacity="0.08"/>
<path d="M1523.41 99.5303L1448.35 99.5303L1448.35 101.04L1523.41 101.04L1523.41 99.5303Z" fill="white" fill-opacity="0.08"/>
<path d="M1523.41 106.83L1448.35 106.83L1448.35 108.343L1523.41 108.343L1523.41 106.83Z" fill="white" fill-opacity="0.08"/>
<path d="M1523.41 114.129L1448.35 114.129L1448.35 115.642L1523.41 115.642L1523.41 114.129Z" fill="white" fill-opacity="0.08"/>
<path d="M1523.41 121.435L1448.35 121.435L1448.35 122.948L1523.41 122.948L1523.41 121.435Z" fill="white" fill-opacity="0.08"/>
<path d="M1523.41 128.733L1448.35 128.733L1448.35 130.246L1523.41 130.246L1523.41 128.733Z" fill="white" fill-opacity="0.08"/>
<path d="M1690.86 56.418L1689.53 56.418L1689.53 131.06L1690.86 131.06L1690.86 56.418Z" fill="white" fill-opacity="0.08"/>
<path d="M1702.99 56.418L1701.66 56.418L1701.66 131.06L1702.99 131.06L1702.99 56.418Z" fill="white" fill-opacity="0.08"/>
<path d="M1715.12 56.418L1713.79 56.418L1713.79 131.06L1715.12 131.06L1715.12 56.418Z" fill="white" fill-opacity="0.08"/>
<path d="M1727.25 56.418L1725.92 56.418L1725.92 131.06L1727.25 131.06L1727.25 56.418Z" fill="white" fill-opacity="0.08"/>
<path d="M1739.38 56.418L1738.05 56.418L1738.05 131.06L1739.38 131.06L1739.38 56.418Z" fill="white" fill-opacity="0.08"/>
<path d="M1751.51 56.418L1750.18 56.418L1750.18 131.06L1751.51 131.06L1751.51 56.418Z" fill="white" fill-opacity="0.08"/>
<path d="M1763.65 56.418L1762.31 56.418L1762.31 131.06L1763.65 131.06L1763.65 56.418Z" fill="white" fill-opacity="0.08"/>
<path d="M1683.88 55.9336L1608.82 55.9336L1608.82 57.2296L1683.88 57.2296L1683.88 55.9336Z" fill="white" fill-opacity="0.08"/>
<path d="M1683.88 63.0186L1608.82 63.0186L1608.82 64.5316L1683.88 64.5316L1683.88 63.0186Z" fill="white" fill-opacity="0.08"/>
<path d="M1683.88 70.3184L1608.82 70.3184L1608.82 71.8314L1683.88 71.8314L1683.88 70.3184Z" fill="white" fill-opacity="0.08"/>
<path d="M1683.88 77.623L1608.82 77.623L1608.82 79.1361L1683.88 79.1361L1683.88 77.623Z" fill="white" fill-opacity="0.08"/>
<path d="M1683.88 84.9229L1608.82 84.9229L1608.82 86.4359L1683.88 86.4359L1683.88 84.9229Z" fill="white" fill-opacity="0.08"/>
<path d="M1683.88 92.2256L1608.82 92.2256L1608.82 93.7387L1683.88 93.7387L1683.88 92.2256Z" fill="white" fill-opacity="0.08"/>
<path d="M1683.88 99.5303L1608.82 99.5303L1608.82 101.04L1683.88 101.04L1683.88 99.5303Z" fill="white" fill-opacity="0.08"/>
<path d="M1683.88 106.83L1608.82 106.83L1608.82 108.343L1683.88 108.343L1683.88 106.83Z" fill="white" fill-opacity="0.08"/>
<path d="M1683.88 114.129L1608.82 114.129L1608.82 115.642L1683.88 115.642L1683.88 114.129Z" fill="white" fill-opacity="0.08"/>
<path d="M1683.88 121.435L1608.82 121.435L1608.82 122.948L1683.88 122.948L1683.88 121.435Z" fill="white" fill-opacity="0.08"/>
<path d="M1683.88 128.733L1608.82 128.733L1608.82 130.246L1683.88 130.246L1683.88 128.733Z" fill="white" fill-opacity="0.08"/>
<path d="M1851.09 56.418L1849.76 56.418L1849.76 131.06L1851.09 131.06L1851.09 56.418Z" fill="white" fill-opacity="0.08"/>
<path d="M1863.23 56.418L1861.89 56.418L1861.89 131.06L1863.23 131.06L1863.23 56.418Z" fill="white" fill-opacity="0.08"/>
<path d="M1875.36 56.418L1874.02 56.418L1874.02 131.06L1875.36 131.06L1875.36 56.418Z" fill="white" fill-opacity="0.08"/>
<path d="M1887.49 56.418L1886.15 56.418L1886.15 131.06L1887.49 131.06L1887.49 56.418Z" fill="white" fill-opacity="0.08"/>
<path d="M1899.62 56.418L1898.29 56.418L1898.29 131.06L1899.62 131.06L1899.62 56.418Z" fill="white" fill-opacity="0.08"/>
<path d="M1911.75 56.418L1910.41 56.418L1910.41 131.06L1911.75 131.06L1911.75 56.418Z" fill="white" fill-opacity="0.08"/>
<path d="M1844.35 55.9336L1769.3 55.9336L1769.3 57.2296L1844.35 57.2296L1844.35 55.9336Z" fill="white" fill-opacity="0.08"/>
<path d="M1844.35 63.0186L1769.3 63.0186L1769.3 64.5316L1844.35 64.5316L1844.35 63.0186Z" fill="white" fill-opacity="0.08"/>
<path d="M1844.35 70.3184L1769.3 70.3184L1769.3 71.8314L1844.35 71.8314L1844.35 70.3184Z" fill="white" fill-opacity="0.08"/>
<path d="M1844.35 77.623L1769.3 77.623L1769.3 79.1361L1844.35 79.1361L1844.35 77.623Z" fill="white" fill-opacity="0.08"/>
<path d="M1844.35 84.9229L1769.3 84.9229L1769.3 86.4359L1844.35 86.4359L1844.35 84.9229Z" fill="white" fill-opacity="0.08"/>
<path d="M1844.35 92.2256L1769.3 92.2256L1769.3 93.7387L1844.35 93.7387L1844.35 92.2256Z" fill="white" fill-opacity="0.08"/>
<path d="M1844.35 99.5303L1769.3 99.5303L1769.3 101.04L1844.35 101.04L1844.35 99.5303Z" fill="white" fill-opacity="0.08"/>
<path d="M1844.35 106.83L1769.3 106.83L1769.3 108.343L1844.35 108.343L1844.35 106.83Z" fill="white" fill-opacity="0.08"/>
<path d="M1844.35 114.129L1769.3 114.129L1769.3 115.642L1844.35 115.642L1844.35 114.129Z" fill="white" fill-opacity="0.08"/>
<path d="M1844.35 121.435L1769.3 121.435L1769.3 122.948L1844.35 122.948L1844.35 121.435Z" fill="white" fill-opacity="0.08"/>
<path d="M1844.35 128.733L1769.3 128.733L1769.3 130.246L1844.35 130.246L1844.35 128.733Z" fill="white" fill-opacity="0.08"/>
</g>
<defs>
<clipPath id="clip0_398_14575">
<rect width="1920" height="133" fill="white"/>
</clipPath>
</defs>
</svg>
