<svg width="152" height="63" viewBox="0 0 152 63" fill="none" xmlns="http://www.w3.org/2000/svg">
<g clip-path="url(#clip0_1_1708)">
<path fill-rule="evenodd" clip-rule="evenodd" d="M140.921 33.932V45.5716C136.913 46.9558 132.597 47.9946 127.814 47.9946C118.246 47.9946 110.719 41.7207 110.719 32.4172C110.719 24.2384 116.952 17.1422 128.373 17.1422C132.424 17.1422 136.994 18.1363 140.01 19.6958L138.852 23.1817C138.852 23.1817 134.404 19.0033 128.461 19.0033C122.166 19.0033 116.607 23.3741 116.607 32.3313C116.607 41.4165 122.599 46.0476 128.933 46.0476C129.538 46.0476 132.834 46.0476 135.377 44.4049V33.932H140.921V33.932ZM94.3943 20.2148V47.4219H88.7233V20.2148H77.9872L79.0618 17.4885H105.13L104.057 20.2148H94.3943ZM58.4582 23.2005L49.0618 47.4219H45.3982L59.6379 14.0312L74.2402 47.4219H68.3292L58.4582 23.2005ZM27.5297 47.421L20.2642 25.1797L12.7718 47.421H9.55419L0.0717773 17.4876H5.81583L12.5475 40.519L19.9277 17.4876H22.8515L30.2813 40.5539L37.7806 17.4876H41.2816L30.4969 47.421H27.5297V47.421Z" fill="white"/>
</g>
<defs>
<clipPath id="clip0_1_1708">
<rect width="141" height="34" fill="white" transform="translate(0 14)"/>
</clipPath>
</defs>
</svg>
