<svg width="121" height="63" viewBox="0 0 121 63" fill="none" xmlns="http://www.w3.org/2000/svg">
<path d="M78.8524 40.4946C78.4363 40.4946 77.8122 40.4946 77.3961 40.4946C75.1077 40.7027 73.4433 41.9509 72.4031 43.8233C71.3629 45.9036 71.155 47.984 71.571 50.2724C71.9871 52.7689 73.4434 54.4332 75.7318 55.2653C76.3559 55.4734 76.98 55.6814 77.6041 55.6814H79.8926H80.1006C81.5568 55.4734 82.805 54.8493 83.8452 54.0171C84.6774 53.393 85.3015 52.5609 85.9256 51.5207C84.8854 50.8966 83.8453 50.4805 82.597 49.8563C82.181 50.8965 81.5569 51.7287 80.5167 52.1448C80.1006 52.3528 79.4764 52.5609 79.0604 52.5609C78.6443 52.5609 78.0202 52.5609 77.6041 52.1448C76.3558 51.7287 75.5238 50.0644 75.7318 48.8162H80.9328H86.1337V48.6081C86.1337 47.3599 85.9257 46.3197 85.7176 45.2795C85.0935 42.9911 83.6372 41.5348 81.3487 40.7027C80.5166 40.4946 79.6845 40.4946 78.8524 40.4946ZM75.9398 46.3197C76.1478 44.6554 77.3961 43.4071 78.8524 43.4071C78.8524 43.4071 78.8523 43.4071 79.0604 43.4071C80.7247 43.4071 81.7648 44.4474 81.7648 46.1117L75.9398 46.3197Z" fill="white"/>
<path d="M104.855 40.4946C104.231 40.4946 103.814 40.4946 103.19 40.7027C101.318 40.9107 99.8616 41.7429 99.0295 43.6152C98.1973 45.4875 98.6135 47.984 100.694 49.0242C101.942 49.6483 102.982 49.8564 104.23 50.0644C104.855 50.2724 105.687 50.2725 106.311 50.4805C106.935 50.6885 107.143 51.5207 106.519 52.1448C106.311 52.3528 105.895 52.5609 105.687 52.5609C105.271 52.7689 104.855 52.7689 104.23 52.7689C103.606 52.7689 102.774 52.5609 102.15 52.3528C101.318 51.9367 100.694 51.5206 99.8617 50.8965C99.0295 51.7287 98.1974 52.3528 97.1572 53.185L97.3652 53.393C99.4456 55.2654 101.526 56.0975 104.022 56.0975C105.271 56.0975 106.519 55.8895 107.767 55.4734C109.015 55.0573 109.847 54.4332 110.472 53.185C110.68 52.7689 110.888 52.1447 111.096 51.7287V50.4805C110.888 49.0242 110.056 48.192 108.807 47.5679C107.767 47.1518 106.727 46.7358 105.479 46.5277C104.647 46.3197 104.022 46.3197 103.19 46.1117C102.982 46.1117 102.774 45.9036 102.566 45.4875C102.358 45.0715 102.566 44.6554 103.19 44.4473C103.606 44.2393 104.022 44.2394 104.439 44.2394C104.647 44.2394 105.063 44.2394 105.271 44.2394C106.311 44.4474 107.143 44.8634 107.975 45.4875H108.183C108.183 45.4875 108.391 45.4876 108.391 45.2795C108.807 44.8635 109.223 44.4474 109.64 44.0313C110.056 43.6152 110.264 43.4072 110.68 42.9911V42.7831C109.223 41.1188 107.143 40.4946 104.855 40.4946Z" fill="white"/>
<path d="M5.409 35.9175C3.7447 35.9175 2.08041 35.9175 0.416102 35.9175H0V55.473H4.9929V49.0239C5.61702 49.0239 6.44917 49.0239 7.07328 49.0239C7.48936 49.0239 7.90545 49.0239 8.32152 49.0239C9.56975 49.0239 10.61 48.8158 11.8582 48.6078C14.1466 48.1917 15.8109 46.7354 16.435 44.655C17.0591 42.9907 16.8511 41.5345 16.435 39.8702C15.8109 37.9978 14.5627 36.7496 12.6903 36.3335C11.4421 35.9174 10.4019 35.9175 9.15366 35.9175C7.90543 35.9175 6.65723 35.9175 5.409 35.9175ZM5.61705 45.4872C5.40902 45.4872 5.20094 45.4872 4.9929 45.4872V39.6621H5.20095C5.82507 39.6621 6.44917 39.6621 7.07328 39.6621C7.6974 39.6621 8.3215 39.6621 8.94561 39.6621C9.36169 39.6621 9.98583 39.8702 10.4019 39.8702C11.6501 40.2863 12.0662 41.1184 12.0662 42.3666C12.0662 42.7827 12.0662 43.1988 11.8582 43.6149C11.6502 44.655 10.818 45.2792 9.77781 45.2792C8.52959 45.4872 7.48937 45.2791 6.24114 45.4872C6.0331 45.4872 5.82509 45.4872 5.61705 45.4872Z" fill="white"/>
<path d="M25.1739 40.4947C24.3417 40.4947 23.7176 40.4947 22.8855 40.7027C21.8453 40.9108 20.8051 41.3269 19.9729 42.159C19.1408 42.9912 18.9327 43.8233 18.9327 44.8635C19.5568 44.8635 20.389 44.8635 21.0131 44.8635C21.6372 44.8635 22.2614 44.8635 22.8855 44.8635C23.0935 44.8635 23.0935 44.6554 23.0935 44.6554C23.3015 44.0313 23.5096 43.6152 24.1337 43.4072C24.5497 43.4072 24.9659 43.1992 25.382 43.1992C25.382 43.1992 25.59 43.1992 25.7981 43.1992C26.4222 43.1992 26.6302 43.6153 26.8383 44.0313C26.8383 44.4474 27.0462 45.0715 27.0462 45.4876L26.8383 45.6956C25.7981 45.9037 24.7579 46.1117 23.7177 46.3198C22.4695 46.5278 21.2212 46.9438 20.389 47.568C19.3488 48.4001 18.5167 49.4403 18.5167 50.8966C18.3087 53.6011 20.181 55.4734 22.8855 55.4734C23.0935 55.4734 23.0936 55.4734 23.3016 55.4734C24.7579 55.4734 26.2141 55.0573 27.4624 54.0171L27.8785 53.8091V55.0573H32.0392C32.0392 54.6413 31.8311 54.4332 31.8311 54.0171C31.8311 53.6011 31.8311 52.977 31.8311 52.5609C31.8311 49.6484 31.8311 46.9439 31.8311 44.0313C31.8311 42.9912 31.4151 41.9509 30.5829 41.3268C29.9588 40.9107 29.5428 40.4947 28.9186 40.2866C27.2543 40.7027 26.214 40.4947 25.1739 40.4947ZM24.1337 52.7689C23.9256 52.7689 23.7177 52.7689 23.7177 52.7689C23.0936 52.5609 22.6774 52.1448 22.4694 51.7287C22.2613 51.1046 22.4694 50.6886 22.8855 50.2725L23.3016 50.0644C24.5498 49.6484 25.59 49.2323 26.8383 48.8162C26.8383 49.8564 26.8382 51.1046 26.214 51.9368C25.798 52.1448 24.9658 52.7689 24.1337 52.7689Z" fill="white"/>
<path d="M64.9095 40.4946C64.4934 40.4946 64.0773 40.4946 63.6612 40.4946C62.621 40.7027 61.5809 41.1188 60.7487 41.9509H60.5406V40.9107H56.1719V55.2653H60.3326V55.0573C60.3326 52.1448 60.3326 49.2322 60.3326 46.5277C60.3326 46.1116 60.3326 45.6956 60.5406 45.4875C60.7487 44.4473 61.5809 44.0313 62.413 44.0313C62.6211 44.0313 62.8291 44.0313 63.0371 44.0313C64.0773 44.2393 64.4933 44.8634 64.7014 45.9036C64.7014 46.1117 64.7014 46.3197 64.7014 46.5277C64.7014 49.4403 64.7014 52.1448 64.7014 55.0573V55.4734H68.8621V55.2653C68.8621 51.9367 68.8621 48.6082 68.8621 45.2795C68.8621 44.8635 68.8621 44.4474 68.8621 44.0313C68.6541 42.7831 68.0301 41.9509 66.9899 41.3268C66.5738 40.7027 65.7417 40.4946 64.9095 40.4946Z" fill="white"/>
<path d="M50.9726 36.7495H46.6038V41.3263H44.5234V42.5746V43.8228H46.6038V44.2389C46.6038 46.3193 46.6038 48.6076 46.6038 50.688C46.6038 51.3121 46.6038 51.7283 46.6038 52.3524C46.8119 54.0167 47.852 55.0569 49.5163 55.2649C49.9324 55.2649 50.5565 55.2649 50.9726 55.2649C51.8047 55.2649 52.4288 55.2649 53.2609 55.0568C53.469 55.0568 53.4691 54.8488 53.4691 54.6408C53.4691 53.8086 53.4691 52.7684 53.4691 51.9363V51.7282H53.0529C52.8449 51.7282 52.4288 51.7282 52.2207 51.7282C52.0127 51.7282 51.8048 51.7282 51.8048 51.7282C51.3887 51.7282 51.1806 51.5202 50.9726 50.8961C50.9726 50.48 50.9726 50.0639 50.9726 49.8559C50.9726 47.9835 50.9726 45.9032 50.9726 44.0308V43.6147H53.677V40.9103H50.9726V36.7495Z" fill="white"/>
<path d="M42.4416 40.9102C40.9854 41.1182 39.5291 41.5342 38.2809 42.5744V41.1182H34.1201V55.6809H38.2809C38.2809 53.1844 38.2809 50.4799 38.2809 47.9834C38.2809 47.5674 38.2809 47.1513 38.2809 46.9432C38.2809 46.3191 38.697 45.695 39.3211 45.487C39.7371 45.2789 39.9452 45.279 40.3613 45.279C40.9854 45.0709 41.6095 45.0709 42.4416 44.8629V40.9102Z" fill="white"/>
<path d="M96.7385 40.7021C95.2822 40.9102 93.826 41.3262 92.5778 42.3664V40.9102H88.417V55.4729H92.5778V55.0568C92.5778 52.5603 92.5778 49.8559 92.5778 47.3594C92.5778 45.9031 92.9939 45.279 94.4501 45.071C95.0743 44.8629 95.9064 44.8629 96.5305 44.6549L96.7385 40.7021Z" fill="white"/>
<path d="M67.4086 11.5767C66.7845 11.5767 66.3683 11.5767 65.7442 11.7847C63.6638 12.2008 61.9995 13.241 60.9593 15.1133C59.7111 17.4018 59.5031 19.6902 60.3352 22.1866C60.9594 24.475 62.4156 25.9313 64.704 26.7634C65.1201 26.9715 65.7442 26.9715 66.1603 27.1795H68.4488C68.6568 27.1795 68.8648 27.1795 69.0729 26.9715C71.5693 26.5554 73.2336 25.0991 74.4818 22.8107C73.4416 22.1866 72.4014 21.7705 71.3612 21.1464C70.9452 22.1866 70.321 23.0188 69.2809 23.4349C68.8648 23.6429 68.2406 23.8509 67.8246 23.8509C67.4085 23.8509 66.7845 23.8509 66.3684 23.6428C65.1202 23.0187 64.4959 21.3545 64.704 20.3143H74.8979C74.8979 19.0661 74.6899 17.6098 74.2738 16.5696C73.6497 14.4892 72.4014 13.0329 70.321 12.4088C69.2809 11.7847 68.2407 11.5767 67.4086 11.5767ZM64.288 17.4017C64.4961 15.7374 65.7442 14.4892 67.2005 14.4892H67.4086C68.8649 14.6972 69.905 15.5294 70.1131 17.1937L64.288 17.4017Z" fill="white"/>
<path d="M14.5627 7C12.0662 7 9.56974 7 7.07328 7C4.78486 7 2.70452 7 0.416102 7H0V26.5556H4.9929V18.6501H14.3546V14.9055H13.9386C12.4823 14.9055 11.2341 14.9055 9.77781 14.9055C8.32155 14.9055 6.86527 14.9055 5.409 14.9055C4.99293 14.9055 4.9929 14.6974 4.9929 14.4894C4.9929 13.4492 4.9929 12.6171 4.9929 11.5769V10.7447H15.1868V10.3286C15.1868 9.28843 15.1868 8.24825 15.1868 7.4161C14.9787 7.00003 14.9787 7 14.5627 7Z" fill="white"/>
<path d="M24.3429 11.5767C23.5108 11.5767 22.4706 11.7847 21.6385 11.9928C19.7661 12.6169 18.3099 13.8651 17.4777 15.7374C16.8536 16.9857 16.6455 18.0258 16.6455 19.4821C16.6455 20.1062 16.6455 20.7304 16.8535 21.3545C17.2696 23.8509 18.7259 25.7233 21.2224 26.5554C22.2626 26.9715 23.5107 27.1795 24.5509 27.1795C25.175 27.1795 25.7992 27.1795 26.4233 26.9715C28.9198 26.5554 30.7921 25.3072 31.8323 22.8107C32.4564 21.1464 32.6644 19.274 32.2484 17.4017C31.6242 14.9052 30.3761 13.0329 27.8796 12.2007C26.4233 11.7847 25.3831 11.5767 24.3429 11.5767ZM24.3429 23.6428C23.3028 23.6428 22.2626 23.2268 21.6385 22.1866C20.5983 20.5223 20.5982 18.65 21.4304 16.7776C22.0545 15.5294 22.8867 15.1133 24.3429 15.1133C24.551 15.1133 24.759 15.1133 24.759 15.1133C26.2153 15.3214 27.0474 16.1535 27.4635 17.4017C27.6716 18.0258 27.6716 18.858 27.8796 19.066C27.8796 20.3143 27.6715 21.3545 27.2554 22.1866C26.4232 23.0188 25.3831 23.6428 24.3429 23.6428Z" fill="white"/>
<path d="M40.5665 11.5767C39.9424 11.5767 39.5263 11.5767 38.9022 11.7847C37.2379 11.9927 35.9896 12.6169 34.9494 14.0731C33.4932 16.1535 34.1173 19.2741 36.8218 20.1062C38.0701 20.5223 39.1103 20.7303 40.3585 20.9384C40.9826 20.9384 41.6067 21.1464 42.2308 21.3545C42.6468 21.5625 42.6469 21.7705 42.6469 22.1866C42.6469 22.8107 42.2307 23.0188 41.8147 23.2268C41.1906 23.4348 40.5665 23.6428 40.1504 23.6428C39.1102 23.6428 38.2781 23.2268 37.4459 22.8107C37.0298 22.3946 36.4057 22.1866 35.9896 21.7705C35.1575 22.6027 34.3253 23.4348 33.2852 24.267C33.7012 24.475 33.9093 24.8911 34.1174 25.0991C34.5334 25.5152 34.9494 25.7232 35.5735 25.9313C37.0298 26.7634 38.6941 26.9715 40.1504 26.9715C40.3584 26.9715 40.5665 26.9715 40.9826 26.9715C42.2308 26.9715 43.6871 26.5554 44.7273 25.9313C46.5996 24.8911 47.4317 23.2268 47.0156 21.1464C46.8076 19.8982 45.9754 19.066 44.9352 18.4419C43.895 17.8178 42.6469 17.6097 41.3987 17.4017C40.7746 17.1937 39.9424 17.1937 39.3183 16.9857C39.1103 16.9857 38.6941 16.7776 38.6941 16.3615C38.4861 15.9454 38.9022 15.3214 39.5263 15.1133C39.9424 15.1133 40.3584 14.9053 40.7745 14.9053C40.9825 14.9053 41.1907 14.9053 41.3987 14.9053C42.4389 14.9053 43.271 15.5294 44.1032 16.1535L44.3111 16.3615C44.3111 16.3615 44.5193 16.3616 44.5193 16.1535C44.9353 15.7374 45.5594 15.1133 45.9754 14.6972C46.1835 14.4892 46.5996 14.0731 46.8076 13.8651L46.5996 13.657C44.7273 12.4088 42.6469 11.5767 40.5665 11.5767Z" fill="white"/>
<path d="M51.179 7.83256C50.9709 7.83256 50.763 7.83252 50.763 8.2486C50.763 9.49683 50.763 10.7451 50.763 11.9933V12.4094H48.6826V15.1139H50.763V15.5299C50.763 18.2344 50.763 20.7309 50.763 23.4354C50.763 24.8917 51.3871 25.9319 52.8434 26.3479C53.4675 26.556 54.0915 26.556 54.7156 26.556C54.9237 26.556 55.1317 26.556 55.3397 26.556C56.1719 26.556 56.7961 26.556 57.6282 26.3479V23.0193C57.4202 23.0193 57.0041 23.0193 56.796 23.0193C56.588 23.0193 56.38 23.0193 56.1719 23.0193C56.1719 23.0193 56.172 23.0193 55.9639 23.0193C55.1318 23.0193 54.9238 22.6032 54.9238 21.9791C54.9238 19.6907 54.9238 17.6103 54.9238 15.3219V14.9058H57.6282V12.2013H54.9238V7.62451C54.0916 7.62451 53.4675 7.62451 52.8434 7.62451C52.4273 7.83255 51.8031 7.83256 51.179 7.83256Z" fill="white"/>
<path d="M85.7161 11.7842C84.2598 11.9922 82.8035 12.4083 81.5553 13.4485V11.9922H77.3945V26.5549H81.5553V26.1388C81.5553 23.4343 81.5553 20.9379 81.5553 18.2334C81.5553 17.1932 81.9713 16.569 82.8035 16.361C83.0115 16.361 83.4276 16.153 83.6357 16.153C84.2598 15.945 84.8839 15.9449 85.7161 15.7369V11.7842Z" fill="white"/>
<path d="M103.606 7.41553H101.734V15.9451H93.2041V18.0255H101.734V26.5551H103.606V18.0255H104.022C106.519 18.0255 108.807 18.0255 111.303 18.0255C111.511 18.0255 111.512 18.0255 111.72 18.0255H111.928L112.136 17.8174C112.136 17.1933 112.136 16.5692 112.136 15.9451H103.606V7.41553Z" fill="white"/>
</svg>
