<svg width="250" height="28" viewBox="0 0 250 28" fill="none" xmlns="http://www.w3.org/2000/svg">
<path d="M51.3159 7.65418C51.3159 7.41128 51.3159 7.16842 51.3159 6.92553V6.68262H51.073C48.887 6.68262 46.9438 6.68262 45.0007 6.68262C43.0575 6.68262 41.3572 6.68262 39.657 6.68262H39.4141V6.92553C39.4141 7.16842 39.4141 7.41128 39.4141 7.65418C39.4141 7.89707 39.4141 8.14001 39.4141 8.38291V8.62574H39.657C40.6285 8.38285 42.0859 8.38291 43.7862 8.38291H44.2719V12.0263C44.2719 14.941 44.2719 18.3415 44.2719 22.7136V22.9566H44.5149C45.2435 22.9566 45.9722 22.9566 46.7009 22.9566H46.9438V22.7136C46.9438 18.3415 46.9438 15.1839 46.9438 13.2408C46.9438 11.0547 46.9438 9.59738 46.9438 8.38291H47.4296C49.1299 8.38291 50.3443 8.38285 51.5588 8.62574H51.8017V8.38291C51.3159 8.14001 51.3159 7.89707 51.3159 7.65418Z" fill="white"/>
<path d="M68.8023 14.2123C68.8023 11.5405 68.8023 9.11157 69.0452 6.92553V6.68262H68.8023C68.0736 6.68262 67.3449 6.68262 66.6162 6.68262H66.3733V6.92553C66.6162 8.62578 66.6162 10.5689 66.6162 12.755V13.4836C65.1589 13.4836 63.4586 13.4836 62.0013 13.4836C60.5439 13.4836 59.0866 13.4836 57.3863 13.4836V12.755C57.3863 10.0831 57.3862 8.14 57.6291 6.92553V6.68262H57.3863C57.1434 6.68262 56.6576 6.68262 56.4147 6.68262C56.1718 6.68262 55.686 6.68262 55.4431 6.68262H55.2002V6.92553C55.4431 8.86868 55.4431 11.0547 55.4431 14.2123C55.4431 17.8558 55.4431 20.5276 55.2002 22.7136V22.9566H55.4431C55.686 22.9566 56.1718 22.9566 56.4147 22.9566C56.9005 22.9566 57.1434 22.9566 57.3863 22.9566H57.6291V22.7136C57.6291 21.4992 57.6291 19.3131 57.6291 15.9126V14.941C60.7868 14.941 63.7015 14.941 66.6162 14.941V15.9126C66.6162 19.0702 66.6162 21.4992 66.3733 22.7136V22.9566H66.6162C66.8591 22.9566 67.3449 22.9566 67.5878 22.9566C67.8307 22.9566 68.3165 22.9566 68.5594 22.9566H68.8023V22.7136C68.8023 19.3131 68.8023 16.6413 68.8023 14.2123Z" fill="white"/>
<path d="M76.8181 21.2565H76.3323V14.9413H77.3038C79.247 14.9413 80.7044 14.9413 81.676 15.1842H81.9188C81.9188 14.6984 81.9188 13.9697 81.9188 13.4839H81.676C79.247 13.7268 77.7897 13.7268 76.8181 13.7268H76.3323V8.38316H76.8181C78.7612 8.38316 80.4614 8.3831 82.1617 8.626H82.4046V8.38316V7.16869V6.92578H82.1617C79.7328 6.92578 78.0325 6.92578 76.8181 6.92578C75.8465 6.92578 74.8749 6.92578 74.1462 6.92578H73.9033V7.16869C73.9033 9.11184 74.1462 11.5407 74.1462 14.6983C74.1462 18.3418 74.1462 20.7707 73.9033 22.7139V22.9568H74.1462C77.061 22.9568 79.7328 22.9568 82.1617 22.9568H82.4046V22.7139V21.2565V21.0136H82.1617C79.247 21.2565 77.5468 21.2565 76.8181 21.2565Z" fill="white"/>
<path d="M104.263 6.43945C98.6766 6.43945 95.0332 9.83997 95.0332 14.9407C95.0332 19.7986 98.4337 22.9563 103.777 22.9563C105.72 22.9563 107.664 22.7133 109.85 21.9847H110.093V21.7418C110.093 21.0131 110.093 20.5273 110.093 19.5557C110.093 18.827 110.093 17.6126 110.093 15.9123V15.6695H109.85C109.121 15.6695 108.635 15.6695 107.907 15.6695H107.664V15.9123C107.664 16.8839 107.664 17.8555 107.664 18.8271C107.664 19.5557 107.664 20.2844 107.664 21.0131C106.449 21.4989 105.478 21.7418 104.02 21.7418C100.134 21.7418 97.4621 19.0699 97.4621 14.6978C97.4621 10.3257 99.891 7.65392 103.777 7.65392C106.206 7.65392 107.907 8.38261 109.121 10.0829L109.364 10.3258V9.83996C109.607 9.11127 109.607 8.62551 109.85 7.89683V7.65392C108.392 6.92524 106.449 6.43945 104.263 6.43945Z" fill="white"/>
<path d="M118.841 21.2563C118.356 21.2563 117.87 21.2563 117.384 21.2563C117.384 19.3131 117.141 17.127 117.141 14.941C117.141 12.755 117.141 9.84025 117.384 6.92553V6.68262H117.141C116.898 6.68262 116.412 6.68262 116.17 6.68262C115.927 6.68262 115.441 6.68262 115.198 6.68262H114.955V6.92553C114.955 9.84025 115.198 12.512 115.198 14.6981C115.198 16.6412 115.198 19.3131 114.955 22.4707V22.7136H115.198C116.17 22.7136 117.141 22.7136 118.113 22.7136C118.841 22.7136 120.785 22.7136 123.456 22.7136H123.699V22.4707V21.2563V21.0134H123.456C122.242 21.2562 120.785 21.2563 118.841 21.2563Z" fill="white"/>
<path d="M134.624 6.68359C129.281 6.68359 126.123 9.8412 126.123 14.942C126.123 20.0428 129.524 23.2004 134.624 23.2004C139.725 23.2004 143.126 19.7999 143.126 14.942C143.369 9.8412 139.968 6.68359 134.624 6.68359ZM140.697 14.6991C140.697 19.3141 138.511 21.7431 134.624 21.7431C130.738 21.7431 128.552 19.3141 128.552 14.6991C128.552 10.0841 130.738 7.65516 134.624 7.65516C138.511 7.65516 140.697 10.0841 140.697 14.6991Z" fill="white"/>
<path d="M154.785 14.2126C156.728 13.4839 157.943 12.2695 157.943 10.5692C157.943 8.14025 156.243 6.92578 152.113 6.92578C151.385 6.92578 150.656 6.92578 150.17 6.92578C149.927 6.92578 149.441 6.92578 149.199 6.92578C148.956 6.92578 148.713 6.92578 148.47 6.92578H147.741V7.16869C147.741 9.11184 147.984 12.2694 147.984 16.3986C147.984 18.5847 147.984 20.7707 147.741 22.7139V22.9568H147.984H148.227C148.956 22.9568 149.441 22.9568 150.17 22.9568C150.656 22.9568 151.142 22.9568 151.87 22.9568C156 22.9568 158.186 21.2565 158.186 18.0989C158.186 15.9129 157.214 14.6984 154.785 14.2126ZM151.385 13.7268C151.142 13.7268 150.656 13.7268 150.17 13.7268V8.14025C150.656 8.14025 151.385 8.14025 151.628 8.14025C153.328 8.14025 155.271 8.62605 155.271 10.8121C155.514 12.7553 154.056 13.7268 151.385 13.7268ZM155.757 18.3418C155.757 20.5278 154.056 21.7423 151.628 21.7423C151.142 21.7423 150.656 21.7423 150.17 21.4994V14.9413C150.656 14.9413 151.142 14.9413 151.628 14.9413C154.542 14.9413 155.757 15.9128 155.757 18.3418Z" fill="white"/>
<path d="M169.359 6.68262H168.631C166.687 11.2976 164.501 16.3984 161.587 22.4707L161.344 22.7136H161.587C162.072 22.7136 162.558 22.4707 163.044 22.7136H163.287V22.4707C164.016 20.7705 164.744 18.5844 165.473 16.3984C166.445 16.3984 167.173 16.3984 168.145 16.3984C169.116 16.3984 169.845 16.3984 170.817 16.3984L171.06 17.127C171.788 18.8273 172.517 20.5276 173.003 22.2278V22.4707H173.246C173.974 22.4707 174.703 22.2278 175.432 22.4707H175.674L175.432 22.2278C173.731 17.3699 171.545 12.0263 169.359 6.68262ZM170.574 15.4268C170.088 15.4268 169.359 15.4268 168.873 15.4268C167.902 15.4268 166.93 15.4268 166.445 15.4268H166.202L168.388 10.326C169.359 12.755 170.088 14.2123 170.088 14.6981L170.574 15.4268Z" fill="white"/>
<path d="M183.931 21.2563C183.445 21.2563 182.96 21.2563 182.474 21.2563C182.474 19.3131 182.231 17.127 182.231 14.941C182.231 12.755 182.231 9.84025 182.474 6.92553V6.68262H182.231C181.988 6.68262 181.502 6.68262 181.259 6.68262C181.016 6.68262 180.531 6.68262 180.288 6.68262H180.045V6.92553C180.045 9.84025 180.288 12.512 180.288 14.6981C180.288 16.6412 180.288 19.3131 180.045 22.4707V22.7136H180.288C181.259 22.7136 182.231 22.7136 183.203 22.7136C183.931 22.7136 185.874 22.7136 188.546 22.7136H188.789V22.4707V21.2563V21.0134H188.546C187.575 21.2562 185.874 21.2563 183.931 21.2563Z" fill="white"/>
<path d="M207.256 6.44043C201.912 6.44043 198.512 9.59804 198.512 14.6988C198.512 20.0425 201.427 22.9573 206.77 22.9573C208.956 22.9573 210.899 22.4715 211.871 21.7428L212.114 19.7996L211.871 20.0425C210.414 21.257 208.713 21.9856 207.013 21.9856C203.37 21.9856 201.184 19.3138 201.184 14.9417C201.184 10.3267 203.37 7.89781 207.013 7.89781C208.956 7.89781 210.414 8.62649 211.385 10.3268L211.628 10.8126V10.3268C211.628 9.59807 211.628 8.8694 211.871 8.14072V7.89781H211.628C210.656 6.92623 208.956 6.44043 207.256 6.44043Z" fill="white"/>
<path d="M218.665 18.5847V11.5408C218.665 10.0834 218.665 8.38316 218.665 7.16869V6.92578H218.422C217.694 6.92578 216.965 6.92578 216.479 6.92578H216.236V7.16869C216.479 9.35474 216.479 11.7836 216.479 14.9413V16.8845C216.479 18.8276 216.479 20.7707 216.236 22.7139V22.9568H216.479C216.722 22.9568 217.208 22.9568 217.451 22.9568C217.694 22.9568 218.179 22.9568 218.422 22.9568H218.665V22.7139C218.665 21.4994 218.665 20.042 218.665 18.5847Z" fill="white"/>
<path d="M234.944 7.65418C234.944 7.41128 234.944 7.16842 234.944 6.92553V6.68262H234.701C232.515 6.68262 230.572 6.68262 228.629 6.68262C226.685 6.68262 224.985 6.68262 223.285 6.68262H223.042V6.92553C223.042 7.16842 223.042 7.41128 223.042 7.65418C223.042 7.89707 223.042 8.14001 223.042 8.38291V8.62574H223.285C224.256 8.38285 225.714 8.38291 227.414 8.38291H227.9V12.0263C227.9 14.941 227.9 18.3415 227.9 22.7136V22.9566H228.143C228.871 22.9566 229.6 22.9566 230.329 22.9566H230.572V22.7136C230.572 18.3415 230.572 15.1839 230.572 13.2408C230.572 11.0547 230.572 9.59738 230.572 8.38291H231.058C232.758 8.38291 233.972 8.38285 235.187 8.62574H235.43V8.38291C234.944 8.14001 234.944 7.89707 234.944 7.65418Z" fill="white"/>
<path d="M249.757 7.16869L250 6.92578H249.514C249.028 6.92578 248.542 6.92578 247.814 6.92578H247.571C246.356 9.35472 245.142 12.0266 243.685 14.4555C242.227 12.0266 240.77 9.59762 239.555 6.92578H239.312C238.584 6.92578 237.612 6.92578 236.884 6.92578H236.641L236.884 7.16869C238.341 9.84052 240.041 12.7552 242.227 16.3986C242.227 17.6131 242.227 18.5847 242.227 19.5562C242.227 20.5278 242.227 21.4994 242.227 22.7139V22.9568H242.47C242.713 22.9568 243.199 22.9568 243.442 22.9568C243.685 22.9568 244.17 22.9568 244.413 22.9568H244.656V22.7139C244.656 21.2565 244.413 19.7991 244.413 18.3418C244.413 17.6131 244.413 16.6415 244.413 15.9128C246.114 12.9981 247.814 10.3263 249.757 7.16869Z" fill="white"/>
<path d="M28.9652 12.7553L28.7222 12.2695C28.7222 12.2695 27.9935 10.8121 27.2649 9.84055L26.2933 7.89743C25.8075 7.16875 25.3218 6.92587 24.3502 6.92587H16.8204H12.2055H11.7197C10.991 6.92587 10.2623 7.41164 9.77653 7.89743L7.5905 11.5408L6.61886 13.2411L6.37603 13.7269C5.89024 14.4556 5.89024 15.1842 6.37603 15.9129L6.61886 16.3987L7.5905 18.099L9.77653 21.7424C10.2623 22.4711 10.991 22.714 11.7197 22.714H12.2055H17.792H18.2778C19.0065 22.714 19.7352 22.2282 20.2209 21.7424L21.1925 19.7992L23.3786 15.9129C23.8644 15.1842 23.6215 14.4556 23.3786 13.7269C23.3786 13.484 23.1357 13.484 23.1357 13.2411L22.8928 12.7553C22.6499 12.2695 21.9212 12.0267 21.6783 12.0267H14.3915C13.9057 12.0267 13.4199 12.2695 13.177 12.7553L11.9626 14.9413H15.606H19.978C20.2209 14.9413 20.4638 15.1843 20.2209 15.4272L18.2778 18.8277C18.2778 18.8277 18.2778 19.0706 18.0349 19.0706C17.792 19.3135 17.5491 19.5563 17.0634 19.5563H12.6912C12.2054 19.5563 11.9625 19.3135 11.7197 18.8277L9.53362 15.1843C9.29073 14.6985 9.29073 14.2127 9.53362 13.7269L11.7197 10.0835C11.9625 9.59767 12.4483 9.35481 12.6912 9.35481H23.3786C23.8644 9.35481 24.1073 9.59766 24.3502 9.84055L24.5931 10.3264L26.0504 12.9982C26.5362 13.7269 26.5362 14.9414 26.0504 15.6701L21.6783 23.1997C21.1925 24.1713 20.221 24.6571 19.2494 24.6571H10.5052C9.53361 24.6571 8.56203 24.1713 8.07624 23.1997L3.70418 15.6701C3.21839 14.6985 3.21839 13.7269 3.70418 12.7553L8.07624 5.22558C8.56203 4.254 9.53361 3.7682 10.5052 3.7682H24.1073L23.6215 3.03955C22.8928 1.82508 21.6783 0.853516 20.2209 0.853516H9.53362C8.07626 0.853516 6.61889 1.58218 5.89021 3.03955L0.546512 12.0267C-0.182171 13.2411 -0.182171 14.9413 0.546512 16.1558L5.89021 25.1429C6.61889 26.3574 8.07626 27.329 9.53362 27.329H19.978C21.4354 27.329 22.8928 26.6003 23.6215 25.1429L28.9652 16.1558C29.6938 15.67 29.6938 13.9698 28.9652 12.7553Z" fill="white"/>
</svg>
